<svg xmlns="http://www.w3.org/2000/svg" width="81.572" height="38.296" viewBox="0 0 81.572 38.296">
  <g id="Group_122" data-name="Group 122" transform="translate(-104.236 -82.474)">
    <path id="Path_1" data-name="Path 1" d="M203.153,95.4c0-7.853-4.3-12.928-10.959-12.928H179.8v38.295h7.076V108.276c1.41.017,4.646.057,5.317.057C198.851,108.333,203.153,103.258,203.153,95.4Zm-16.276-6.486c2.271.033,5.048.1,5.317.1,3.378,0,3.883,4,3.883,6.383s-.505,6.383-3.883,6.383c-.5,0-3.387-.023-5.317-.043Z" transform="translate(-28.757 -0.001)" fill="#fff"/>
    <path id="Path_2" data-name="Path 2" d="M218.739,82.476v28.966a3.47,3.47,0,0,1-.43,1.714,2.457,2.457,0,0,1-1.755,1.067l-5.633-.018-1.558,6.565h7.718a9.682,9.682,0,0,0,6.15-2.257,8.119,8.119,0,0,0,2.584-6.266V82.476Z" transform="translate(-40.007 -0.001)" fill="#fff"/>
    <path id="Path_3" data-name="Path 3" d="M116.145,104.427l-4.7-21.951h-7.212l8.165,38.3h7.1l9.134-38.3h-7.246Z" transform="translate(0 -0.001)" fill="#fff"/>
    <path id="Path_4" data-name="Path 4" d="M151.028,104.426l-3.294-15.4L143.923,105l3.362,15.766h7.1l9.134-38.3h-7.247Z" transform="translate(-15.103)" fill="#fff"/>
  </g>
</svg>
