<svg id="Group_655" data-name="Group 655" xmlns="http://www.w3.org/2000/svg" xmlns:xlink="http://www.w3.org/1999/xlink" width="33.124" height="45.245" viewBox="0 0 33.124 45.245">
  <defs>
    <clipPath id="clip-path">
      <rect id="Rectangle_270" data-name="Rectangle 270" width="33.124" height="45.245" fill="none" stroke="#fff" stroke-width="1.5"/>
    </clipPath>
  </defs>
  <g id="Group_654" data-name="Group 654" transform="translate(0 0)" clip-path="url(#clip-path)">
    <path id="Path_8943" data-name="Path 8943" d="M6.732,8.944,5.375,9.981A9.875,9.875,0,0,0,2.136,21.314l-.019.008.194.445,1.9,4.369,6.248,14.39a3.654,3.654,0,0,0,6.7-2.91L11.782,25.232l3.824-1.66a6.168,6.168,0,0,0,3.2-8.114l-1.652-3.8A6.838,6.838,0,0,0,6.732,8.944Z" transform="translate(0.169 0.85)" fill="none" stroke="#fff" stroke-linecap="round" stroke-linejoin="round" stroke-width="1.5"/>
    <line id="Line_80" data-name="Line 80" x2="1.547" y2="3.562" transform="translate(11.885 14.738)" fill="none" stroke="#fff" stroke-linecap="round" stroke-linejoin="round" stroke-width="1.5"/>
    <path id="Path_8944" data-name="Path 8944" d="M18.869,6.293a10.253,10.253,0,0,1,4.4,10.634" transform="translate(2.126 0.709)" fill="none" stroke="#fff" stroke-linecap="round" stroke-linejoin="round" stroke-width="1.5"/>
    <path id="Path_8945" data-name="Path 8945" d="M21.564,1.5c5.729,3.411,8.671,9.726,6.993,17.044" transform="translate(2.43 0.169)" fill="none" stroke="#fff" stroke-linecap="round" stroke-linejoin="round" stroke-width="1.5"/>
  </g>
</svg>
