<svg id="Group_653" data-name="Group 653" xmlns="http://www.w3.org/2000/svg" xmlns:xlink="http://www.w3.org/1999/xlink" width="42.178" height="40.909" viewBox="0 0 42.178 40.909">
  <defs>
    <clipPath id="clip-path">
      <rect id="Rectangle_269" data-name="Rectangle 269" width="42.178" height="40.909" fill="rgba(0,0,0,0)" stroke="#fff" stroke-width="1.5"/>
    </clipPath>
  </defs>
  <g id="Group_652" data-name="Group 652" transform="translate(0 0)" clip-path="url(#clip-path)">
    <path id="Path_8939" data-name="Path 8939" d="M9.391,30.158a3.016,3.016,0,1,1-.9-4.17,3.016,3.016,0,0,1,.9,4.17" transform="translate(0.433 2.874)" fill="#fff"/>
    <path id="Path_8940" data-name="Path 8940" d="M31.061,4.654a3.016,3.016,0,1,1-.9-4.17,3.016,3.016,0,0,1,.9,4.17" transform="translate(2.875 0)" fill="#fff"/>
    <path id="Path_8941" data-name="Path 8941" d="M38.254,20.274l-8.994-16L20.018,20.132l3.5,13.347,10.17.079Z" transform="translate(2.256 0.482)" fill="rgba(0,0,0,0)" stroke="#fff" stroke-linecap="round" stroke-linejoin="round" stroke-width="1.5"/>
    <line id="Line_77" data-name="Line 77" x1="0.206" y2="15.886" transform="translate(31.299 6.067)" fill="none" stroke="#fff" stroke-linecap="round" stroke-linejoin="round" stroke-width="1.5"/>
    <path id="Path_8942" data-name="Path 8942" d="M6.233,29.293A22.447,22.447,0,0,1,30.811,3.037" transform="translate(0.663 0.327)" fill="rgba(0,0,0,0)" stroke="#fff" stroke-linecap="round" stroke-width="1.5"/>
    <line id="Line_78" data-name="Line 78" x2="10.452" y2="0.053" transform="translate(25.701 39.187)" fill="none" stroke="#fff" stroke-linecap="round" stroke-linejoin="round" stroke-width="1.5"/>
    <line id="Line_79" data-name="Line 79" x1="29.805" transform="translate(1.669 3.156)" fill="none" stroke="#fff" stroke-linecap="round" stroke-width="1.5"/>
  </g>
</svg>
