<svg xmlns="http://www.w3.org/2000/svg" width="156.125" height="36.128" viewBox="0 0 156.125 36.128">
  <g id="Group_693" data-name="Group 693" transform="translate(-53.457 -86.399)">
    <g id="Group_4" data-name="Group 4" transform="translate(102.754 88.539)">
      <path id="Path_5" data-name="Path 5" d="M190.278,121.695a1.519,1.519,0,0,1-1.22-.61L168.524,93.623l-8.2,10.475a1.522,1.522,0,0,1-2.4-1.877l9.423-12.041a1.662,1.662,0,0,1,1.216-.584,1.521,1.521,0,0,1,1.2.61L191.5,119.261a1.522,1.522,0,0,1-1.218,2.434Z" transform="translate(-137.19 -89.596)" fill="#101115"/>
      <path id="Path_6" data-name="Path 6" d="M128.626,125.445a1.522,1.522,0,0,1-1.228-2.42L143.1,101.561a1.523,1.523,0,0,1,1.191-.623,1.569,1.569,0,0,1,1.22.565l8.9,10.993a1.522,1.522,0,0,1-2.366,1.914l-7.656-9.457-14.537,19.868A1.522,1.522,0,0,1,128.626,125.445Z" transform="translate(-127.105 -93.346)" fill="#101115"/>
    </g>
    <g id="Group_5" data-name="Group 5" transform="translate(167.255 86.4)">
      <path id="Path_7" data-name="Path 7" d="M258.967,108.784H238.351a1.522,1.522,0,0,1-1.457-1.082l-5.516-18.258h-6.391a1.522,1.522,0,0,1,0-3.044h7.522a1.522,1.522,0,0,1,1.457,1.082l5.516,18.258h18.389l4.287-12.8H240.7a1.522,1.522,0,1,1,0-3.044h23.57a1.523,1.523,0,0,1,1.444,2.005l-5.3,15.848A1.523,1.523,0,0,1,258.967,108.784Z" transform="translate(-223.466 -86.401)" fill="#101115"/>
      <path id="Path_8" data-name="Path 8" d="M246.134,133.094a4.51,4.51,0,1,1,4.51-4.51A4.515,4.515,0,0,1,246.134,133.094Zm0-5.977a1.467,1.467,0,1,0,1.466,1.467A1.468,1.468,0,0,0,246.134,127.118Z" transform="translate(-229.47 -98.857)" fill="#101115"/>
      <path id="Path_9" data-name="Path 9" d="M271.616,133.094a4.51,4.51,0,1,1,4.51-4.51A4.515,4.515,0,0,1,271.616,133.094Zm0-5.977a1.467,1.467,0,1,0,1.466,1.467A1.468,1.468,0,0,0,271.616,127.118Z" transform="translate(-237.895 -98.857)" fill="#101115"/>
    </g>
    <g id="Group_6" data-name="Group 6" transform="translate(53.457 86.399)">
      <path id="Path_10" data-name="Path 10" d="M82.843,122.528a1.522,1.522,0,0,1-1.2-.587l-10.123-13-16.432,1.165a1.522,1.522,0,0,1-1.058-2.708L79.937,86.732a1.522,1.522,0,0,1,2.468,1.1l1.957,33.083a1.523,1.523,0,0,1-1.519,1.613ZM72.222,105.845a1.523,1.523,0,0,1,1.2.586l7.612,9.775L79.541,90.943,59.756,106.726l12.357-.876C72.15,105.847,72.186,105.845,72.222,105.845Z" transform="translate(-53.457 -86.4)" fill="#101115"/>
      <path id="Path_11" data-name="Path 11" d="M80.738,108.888a1.5,1.5,0,0,1-.618-.132,1.52,1.52,0,0,1-.771-2.009L88.014,87.3a1.522,1.522,0,1,1,2.78,1.238l-8.665,19.445A1.52,1.52,0,0,1,80.738,108.888Z" transform="translate(-61.974 -86.399)" fill="#101115"/>
    </g>
  </g>
</svg>
