<svg xmlns="http://www.w3.org/2000/svg" width="157.147" height="123.57" viewBox="0 0 157.147 123.57">
  <g id="Group_701" data-name="Group 701" transform="translate(2.136 16.667)">
    <line id="Line_98" data-name="Line 98" y2="7.663" transform="translate(2.446 5.318)" fill="none" stroke="#4566f6" stroke-linecap="round" stroke-linejoin="round" stroke-width="1.5"/>
    <g id="Group_698" data-name="Group 698" transform="translate(-2 -10)">
      <line id="Line_99" data-name="Line 99" x1="7.663" transform="translate(0.614 19.15)" fill="none" stroke="#4566f6" stroke-linecap="round" stroke-linejoin="round" stroke-width="1.5"/>
    </g>
    <line id="Line_100" data-name="Line 100" y2="9.819" transform="translate(141.844 70.631)" fill="none" stroke="#4566f6" stroke-linecap="round" stroke-linejoin="round" stroke-width="1.5"/>
    <line id="Line_101" data-name="Line 101" x1="9.819" transform="translate(136.935 75.54)" fill="none" stroke="#4566f6" stroke-linecap="round" stroke-linejoin="round" stroke-width="1.5"/>
    <g id="Group_702" data-name="Group 702" transform="translate(0 0)">
      <path id="Path_8989" data-name="Path 8989" d="M27.349,64.187,21.5,58.336A33.879,33.879,0,0,1,69.41,10.424" transform="translate(2.636 0.115)" fill="none" stroke="#fff" stroke-linecap="round" stroke-linejoin="round" stroke-width="1.5"/>
      <path id="Path_8990" data-name="Path 8990" d="M58.311,11.45a33.88,33.88,0,0,1,48.677,47.123" transform="translate(13.278 0.348)" fill="none" stroke="#4566f6" stroke-linecap="round" stroke-linejoin="round" stroke-width="1.5"/>
      <path id="Path_8991" data-name="Path 8991" d="M68.929,18.719l33.98,34.025a7.78,7.78,0,0,1-11,11L69.761,41.6" transform="translate(15.696 4.263)" fill="none" stroke="#fff" stroke-linecap="round" stroke-linejoin="round" stroke-width="1.5"/>
      <path id="Path_8992" data-name="Path 8992" d="M71.517,37.45,93.662,59.6a7.78,7.78,0,0,1-11,11L60.514,48.453" transform="translate(13.779 8.528)" fill="none" stroke="#fff" stroke-linecap="round" stroke-linejoin="round" stroke-width="1.5"/>
      <path id="Path_8993" data-name="Path 8993" d="M60.433,46.289,82.578,68.434a7.781,7.781,0,0,1-9.757,12.017" transform="translate(13.761 10.541)" fill="none" stroke="#fff" stroke-linecap="round" stroke-linejoin="round" stroke-width="1.5"/>
      <path id="Path_8994" data-name="Path 8994" d="M52.6,88.889h0a7.4,7.4,0,0,1,0-10.471l9.954-9.955A7.405,7.405,0,0,1,73.024,78.935l-9.955,9.954A7.4,7.4,0,0,1,52.6,88.889Z" transform="translate(11.483 15.096)" fill="none" stroke="#4566f6" stroke-linecap="round" stroke-linejoin="round" stroke-width="1.5"/>
      <path id="Path_8995" data-name="Path 8995" d="M43.878,80.17h0a7.4,7.4,0,0,1,0-10.471l9.954-9.955A7.405,7.405,0,0,1,64.3,70.216L54.349,80.17A7.4,7.4,0,0,1,43.878,80.17Z" transform="translate(9.498 13.111)" fill="none" stroke="#4566f6" stroke-linecap="round" stroke-linejoin="round" stroke-width="1.5"/>
      <path id="Path_8996" data-name="Path 8996" d="M35.4,71.693h0a7.4,7.4,0,0,1,0-10.471l9.954-9.955A7.405,7.405,0,0,1,55.828,61.739l-9.955,9.954A7.4,7.4,0,0,1,35.4,71.693Z" transform="translate(7.567 11.181)" fill="none" stroke="#4566f6" stroke-linecap="round" stroke-linejoin="round" stroke-width="1.5"/>
      <path id="Path_8997" data-name="Path 8997" d="M26.308,63.48h0a7.4,7.4,0,0,1,0-10.471l9.954-9.955A7.4,7.4,0,0,1,46.734,53.526L36.778,63.48A7.4,7.4,0,0,1,26.308,63.48Z" transform="translate(5.497 9.31)" fill="none" stroke="#4566f6" stroke-linecap="round" stroke-linejoin="round" stroke-width="1.5"/>
      <path id="Path_8998" data-name="Path 8998" d="M78.234,17.911,58.841,37.3a11.671,11.671,0,0,1-16.507,0,5.492,5.492,0,0,1,0-7.769L62.315,9.61" transform="translate(9.273 2.189)" fill="none" stroke="#4566f6" stroke-linecap="round" stroke-linejoin="round" stroke-width="1.5"/>
      <path id="Path_8999" data-name="Path 8999" d="M126.135,38.9a5.583,5.583,0,0,0-4.065-.367A5.6,5.6,0,0,0,111.812,38c-2.149,4.294,2.35,14.323,3.154,14.725,1.069.535,11.1-1.156,13.677-6.3a5.6,5.6,0,0,0-2.507-7.528Z" transform="matrix(0.914, -0.407, 0.407, 0.914, 14.339, 5.069)" fill="none" stroke="#fff" stroke-linecap="round" stroke-linejoin="round" stroke-width="1.5"/>
    </g>
  </g>
</svg>
