<svg id="Group_618" data-name="Group 618" xmlns="http://www.w3.org/2000/svg" xmlns:xlink="http://www.w3.org/1999/xlink" width="1920" height="648" viewBox="0 0 1920 648">
  <defs>
    <clipPath id="clip-path">
      <rect id="Rectangle_20" data-name="Rectangle 20" width="648" height="1920" transform="translate(1272)" fill="#2e3038"/>
    </clipPath>
    <clipPath id="clip-path-2">
      <rect id="Rectangle_9" data-name="Rectangle 9" width="1920" height="600.356" fill="#2e3038"/>
    </clipPath>
    <linearGradient id="linear-gradient" x1="0.5" x2="0.5" y2="1" gradientUnits="objectBoundingBox">
      <stop offset="0" stop-color="#101115" stop-opacity="0"/>
      <stop offset="1" stop-color="#101115"/>
    </linearGradient>
  </defs>
  <g id="Mask_Group_15" data-name="Mask Group 15" transform="translate(0 1920) rotate(-90)" opacity="0.6" clip-path="url(#clip-path)">
    <g id="Group_129" data-name="Group 129" transform="translate(1920) rotate(90)">
      <g id="Group_90" data-name="Group 90" transform="translate(0)" clip-path="url(#clip-path-2)">
        <path id="Path_8326" data-name="Path 8326" d="M3315.163,734.365v-1.007c-42.751,33.034-102.6,68.985-165.322,106.657-56.908,34.182-115.032,69.1-160.253,102.233h1.349C3036,909.329,3093.726,874.654,3150.252,840.7c62.5-37.538,122.145-73.367,164.91-106.336" transform="translate(-1395.163 -348.534)" fill="#2e3038"/>
        <path id="Path_8327" data-name="Path 8327" d="M3089.289,585.588c46.924-21.146,87.449-39.41,125.788-80.058q1.887-2,3.754-4.06v-1.3c-39.637,44.02-81.249,62.777-129.87,84.689-32.793,14.779-69.96,31.53-111.625,58.586-47.832,31.061-94.158,70.894-141.625,121.774a468.6,468.6,0,0,0-52.563,68.216h.949a467.517,467.517,0,0,1,52.2-67.671C2942.791,651.61,3024.02,615,3089.289,585.588" transform="translate(-1298.83 -239.721)" fill="#2e3038"/>
        <path id="Path_8328" data-name="Path 8328" d="M2868.431,425.3c100.9-70.633,215.039-150.53,288.805-317.916v-5.33c-73.455,169.894-188.46,250.4-290.03,321.5-61.315,42.919-119.229,83.458-158.757,138.216-20.273,28.084-39.283,56.779-57.3,85.89h2.512c17.786-28.686,36.54-56.963,56.519-84.641,39.318-54.465,97.088-94.9,158.251-137.719" transform="translate(-1237.236 -53.948)" fill="#2e3038"/>
        <path id="Path_8329" data-name="Path 8329" d="M2811,307.852c51.288-41.994,99.733-81.66,141.646-138.92,34.285-46.839,61.435-101.623,83.4-168.932h-.889c-55.175,168.45-134.538,233.434-224.667,307.233-53.859,44.1-109.552,89.7-167.809,161.766-31.387,38.827-60.842,82.3-88.714,131.04h.829c88.565-154.927,176.38-226.831,256.2-292.187" transform="translate(-1191.889 -6.326)" fill="#2e3038"/>
        <path id="Path_8330" data-name="Path 8330" d="M2608.276,369.237c32.1-30.866,64.248-59.152,95.337-86.506,42.693-37.561,83.019-73.042,121.591-113.364,32.864-34.356,57.2-68.757,76.575-108.264A505.647,505.647,0,0,0,2926.658,0h-.777c-21.194,62.6-49.588,114.8-101.255,168.813-38.549,40.3-78.861,75.766-121.541,113.317-31.1,27.36-63.251,55.651-95.364,86.53C2490.189,481.68,2473.844,497.4,2434.249,600.039h.858c39.458-102.224,55.88-118.017,173.169-230.8" transform="translate(-1136.024 -6.326)" fill="#2e3038"/>
        <path id="Path_8331" data-name="Path 8331" d="M2521.919,355.833c11.04-9.678,21.468-18.818,30.618-27.2,14.021-12.837,27.279-24.936,40.1-36.637,114.628-104.61,177.771-162.234,216.436-228.061A344.3,344.3,0,0,0,2838.262,0h-.671c-33.581,98.013-95.934,154.922-245.494,291.408-12.821,11.7-26.079,23.8-40.1,36.638-9.145,8.372-19.569,17.51-30.606,27.184-40.388,35.4-90.651,79.463-114.275,118.574-22.432,32.4-41.254,69.809-57.541,114.363q-2.158,5.9-4.216,11.872h.79c15.256-43.986,34.154-86.1,61.637-125.8,23.574-39.025,73.785-83.04,114.132-118.406" transform="translate(-1094.546 -6.326)" fill="#2e3038"/>
        <path id="Path_8332" data-name="Path 8332" d="M2509.742,288.732c71.182-63.194,144.788-128.54,183.926-191.814C2716,60.81,2733.016,29.581,2746.337,0h-.829c-12.694,28.093-29.4,59.12-52.521,96.5-39.076,63.174-112.637,128.481-183.776,191.637-66.953,59.439-136.185,120.9-173.432,178.531-29.411,45.5-45.486,89.216-57.158,133.375h.829c11.651-44.025,27.7-87.6,57-132.941,37.188-57.537,106.378-118.964,173.291-178.367" transform="translate(-1063.403 -6.326)" fill="#2e3038"/>
        <path id="Path_8333" data-name="Path 8333" d="M2402.475,320.759c57.586-51.253,129.252-115.038,206.544-215.927C2635.248,70.595,2656.73,35.8,2673.668,0h-2.341c-16.331,34.38-37.362,68.76-64,103.534-77.167,100.729-148.75,164.439-206.268,215.632-37.387,33.275-69.676,62.012-93.211,92.036l-.033.045c-50.026,71.207-73.285,132.079-87.823,188.793h2.206c14.5-56.369,37.694-116.863,87.35-187.548,23.416-29.863,55.631-58.536,92.929-91.732" transform="translate(-1036.043 -6.326)" fill="#2e3038"/>
        <path id="Path_8334" data-name="Path 8334" d="M2298.749,349.62c9.76-8.516,21.076-17.982,33.055-28,52.009-43.508,123.238-103.1,183.885-181.719,33.107-42.92,59.886-87.612,79.595-132.835Q2596.819,3.54,2598.3,0h-.727c-63.363,151.246-185.522,253.445-266.28,321-11.982,10.024-23.3,19.492-33.067,28.014-12.585,10.981-27.86,27.64-40.861,44.564-11.375,14.809-26.849,37.376-35.953,60.786-24.4,62.727-32.624,94.641-44.824,145.674h.823c12.168-50.89,20.4-82.783,44.747-145.383,16.386-42.131,55.677-86.785,76.594-105.036" transform="translate(-1015.79 -6.326)" fill="#2e3038"/>
        <path id="Path_8335" data-name="Path 8335" d="M2190.924,401.72c25.93-52.246,58.108-75.759,98.848-105.529,31.919-23.324,68.1-49.76,111.621-96.4,58.8-63.017,73.55-91.372,102.929-147.86,7.845-15.085,16.587-31.892,27.469-51.929h-.91c-10.789,19.874-19.472,36.568-27.269,51.56-29.345,56.425-44.074,84.746-102.8,147.684-43.471,46.587-79.617,73-111.509,96.3-40.827,29.833-73.075,53.4-99.077,105.792-23.94,40.363-33.369,88.543-45.306,149.54-3.081,15.746-6.285,32.108-9.885,49.161h.807c3.612-17.068,6.8-33.376,9.864-49.008,11.922-60.921,21.34-109.041,45.223-149.311" transform="translate(-996.399 -6.326)" fill="#2e3038"/>
        <path id="Path_8336" data-name="Path 8336" d="M2247.4,277.392c40.139-31.919,85.634-68.1,131.9-125.016,35.344-43.484,66.775-93.833,95.031-152.376h-.856c-75.607,156.72-158.147,222.355-226.572,276.765-33.4,26.562-62.249,49.5-85.185,78.949-25.175,32.322-40.142,69.166-47.1,115.947-6.59,44.288-14.751,86.959-24.6,128.378h.906c9.726-41.1,17.845-83.663,24.481-128.26,15.091-101.427,66.681-142.45,132-194.388" transform="translate(-975.392 -6.326)" fill="#2e3038"/>
        <path id="Path_8337" data-name="Path 8337" d="M2177.038,285.269a804.666,804.666,0,0,0,96.09-81.51,766.4,766.4,0,0,0,81.338-95.124A694.38,694.38,0,0,0,2418.913,0h-1.156C2366,108.54,2281.943,208.57,2176.57,284.62c-42.8,30.888-70.331,64.572-86.646,106-14.592,37.057-18.539,76.077-22.718,117.389-2.948,29.141-6.052,59.807-13.243,92.026h.875c7.091-31.914,10.167-62.323,13.164-91.946,8.44-83.429,15.728-155.481,109.037-222.824" transform="translate(-958.57 -6.326)" fill="#2e3038"/>
        <path id="Path_8338" data-name="Path 8338" d="M2063.336,345.51c29.348-43.7,60.671-66.686,93.832-91.017,32.986-24.2,70.372-51.634,110.92-103.845,30.533-39.316,60.076-89.078,89.349-150.649h-2.317c-77.844,163.716-141.755,210.614-199.215,252.773-33.316,24.444-64.784,47.533-94.341,91.548-29.433,43.829-32.855,96.788-36.479,152.857-2.208,34.168-4.458,68.955-12.708,102.861h2.2c8.183-33.892,10.429-68.615,12.633-102.724,3.605-55.773,7.01-108.454,36.122-151.806" transform="translate(-939.165 -6.326)" fill="#2e3038"/>
        <path id="Path_8339" data-name="Path 8339" d="M1978.066,495.441c6.226-75.805,12.663-154.19,75.571-205.67,73.613-60.241,117.937-101.828,152.99-143.544C2244.585,101.055,2271.31,55.661,2292.619,0h-.859C2247.2,116.1,2178.565,186.5,2053.13,289.152c-28.328,23.181-47.714,53.856-59.268,93.776-10.273,35.5-13.486,74.616-16.593,112.447-2.909,35.417-5.88,71.555-14.811,104.664h.889q2.077-7.7,3.814-15.94c5.945-28.277,8.467-58.972,10.9-88.658" transform="translate(-915.872 -6.326)" fill="#2e3038"/>
        <path id="Path_8340" data-name="Path 8340" d="M1986.1,296.131c22.172-21.02,41.491-38.5,58.537-53.926,45.677-41.331,78.679-71.193,127.047-131.59C2196.816,79.24,2219.8,41.442,2239.065,0h-1.027c-18.074,38.862-40.616,77.2-66.974,110.116-48.328,60.347-81.311,90.192-126.959,131.5-17.049,15.427-36.372,32.912-58.55,53.938-49.424,46.858-59.614,128.792-69.467,208.029-4.242,34.113-8.354,67.12-15.388,96.46h.823c7.017-29.334,11.123-62.3,15.36-96.361,9.835-79.1,20.007-160.887,69.223-207.548" transform="translate(-887.053 -6.326)" fill="#2e3038"/>
        <path id="Path_8341" data-name="Path 8341" d="M1965.649,253.091c20.094-16.364,45.1-36.728,75.737-67.794,35.888-36.393,72.211-79.983,111.047-133.26,14.872-20.4,26.089-37.122,34.71-52.036h-.959c-8.95,15.5-20.247,32.154-34.4,51.566-87.739,120.365-144.9,166.915-186.642,200.9-66.134,53.854-86.093,70.107-110.982,301.1-2,18.573-4.014,33.763-6.116,46.47h.811c2.1-12.7,4.1-27.864,6.1-46.384,24.853-230.665,44.754-246.87,110.692-300.565" transform="translate(-862.483 -6.326)" fill="#2e3038"/>
        <path id="Path_8342" data-name="Path 8342" d="M1816.127,498.031c3.683-71.666,6.345-123.446,48.813-196.051,21.986-37.589,46.2-55.487,71.836-74.436,14.615-10.8,29.728-21.975,44.89-37.261,57.565-58.036,99.025-103.083,127.818-148.268A333.839,333.839,0,0,0,2132.4,0h-.922c-28.424,63.245-80.359,119.127-150.377,189.719-15.119,15.243-30.207,26.394-44.8,37.18-25.7,19-49.982,36.945-72.052,74.676-19.6,33.511-32.015,64.982-39.065,99.039-6.454,31.183-8.031,61.857-9.857,97.376-1.36,26.434-2.9,56.4-6.807,90.5-.456,3.975-.989,7.814-1.577,11.553h.81c.582-3.711,1.109-7.521,1.561-11.463,3.911-34.124,5.451-64.1,6.811-90.546" transform="translate(-843.304 -6.326)" fill="#2e3038"/>
        <path id="Path_8343" data-name="Path 8343" d="M1894.854,133.622C1954.493,76.681,1989.706,39.188,2009.5,0h-.99c-19.106,37.514-52.586,74.2-114.212,133.044-38.843,37.086-67.812,65.8-92.178,94.306-27.073,31.674-46.722,61.286-61.837,93.189-31.3,66.075-46.142,147.626-50.6,279.5h.8c9.024-266.589,60.565-329.114,204.371-466.417" transform="translate(-788.586 -6.326)" fill="#2e3038"/>
        <path id="Path_8344" data-name="Path 8344" d="M1760.979,486.407c1.963-69.1,2.775-97.7,39.021-168.776,17.969-35.757,38.1-61.963,63.358-82.474,80.346-65.246,140.81-126.5,179.714-182.044A378.994,378.994,0,0,0,2074.59,0h-2.368a378.611,378.611,0,0,1-30.9,51.889c-38.79,55.388-99.119,116.491-179.31,181.612-25.5,20.708-45.81,47.136-63.917,83.167-36.461,71.5-37.278,100.24-39.25,169.678-.79,27.811-1.773,62.423-5.331,108.983q-.178,2.331-.46,4.709h2.146q.266-2.293.441-4.547c3.562-46.61,4.547-81.251,5.337-109.085" transform="translate(-818.157 -6.326)" fill="#2e3038"/>
        <path id="Path_8345" data-name="Path 8345" d="M1603.668,545.162c5.2-71.771,35.737-145.426,66.568-214.716,50.63-113.793,115.7-173.779,173.1-226.706C1880.03,69.914,1913.152,39.372,1936.247,0h-.932c-23.036,39.088-56.006,69.491-92.518,103.152-57.464,52.978-122.6,113.025-173.293,226.969-30.86,69.355-61.425,143.084-66.635,214.983-1.9,26.276.66,39.173,3.376,52.827q.209,1.052.418,2.109h.816q-.224-1.136-.449-2.265c-2.705-13.6-5.26-26.444-3.364-52.612" transform="translate(-747.769 -6.326)" fill="#2e3038"/>
        <path id="Path_8346" data-name="Path 8346" d="M1525.594,558.3c-7.514-24.634-12.942-42.433,18.331-84.134,15.726-21.133,21.62-43.73,27.859-67.655,3.433-13.165,6.983-26.778,12.327-40.157,38.111-95.417,76.518-148.262,130.749-217.974,20.464-23.517,44.861-44.962,68.455-65.7,23.61-20.753,48.022-42.212,67.91-65.351Q1858.691,8.645,1864.968,0h-.873c-21.7,29.678-50.982,55.425-81.308,82.082-23.613,20.757-48.031,42.22-68.545,65.794-54.286,69.784-92.724,122.67-130.874,218.185-5.362,13.425-8.918,27.064-12.358,40.252-6.219,23.847-12.093,46.372-27.725,67.378-31.517,42.025-26.038,59.986-18.456,84.847,3.188,10.453,6.8,22.3,8.018,37.663.1,1.288.2,2.563.3,3.838h.8c-.1-1.3-.2-2.592-.3-3.9-1.222-15.45-4.849-27.342-8.05-37.835" transform="translate(-708.925 -6.326)" fill="#2e3038"/>
        <path id="Path_8347" data-name="Path 8347" d="M1414.884,478.634c6-26.842,15.781-38.7,39.423-67.348,20.956-25.394,52.625-63.77,101.743-137.251,10.011-14.976,21.085-34.835,32.81-55.861,17.7-31.747,37.767-67.728,61.218-100.187,16.938-23.443,42.5-41.424,69.561-60.461,22.774-16.02,46.324-32.586,65.455-53.216q1.987-2.143,3.875-4.311h-1c-19.564,22.245-44.4,39.715-68.788,56.873-27.119,19.076-52.733,37.094-69.749,60.646-23.478,32.5-43.556,68.5-61.269,100.265-11.717,21.01-22.783,40.857-32.776,55.806-49.1,73.448-80.75,111.8-101.7,137.187-23.728,28.753-33.55,40.654-39.587,67.683-9.754,43.67,1.537,70.727,14.609,102.059,2.655,6.364,5.342,12.8,7.914,19.521h.857c-2.609-6.829-5.336-13.369-8.032-19.83-13.021-31.2-24.265-58.154-14.567-101.575" transform="translate(-658.275 -6.326)" fill="#2e3038"/>
        <path id="Path_8348" data-name="Path 8348" d="M0,1011.826v3.366c8.141,10.378,12.463,23.009,13.065,38.062.286,7.145.433,13.405.516,18.935h2.134c-.083-5.551-.23-11.839-.517-19.021-.7-17.516-6.28-30.947-15.2-41.343" transform="translate(-0.127 -478.476)" fill="#2e3038"/>
        <path id="Path_8349" data-name="Path 8349" d="M1256.14,560.521c-13.556-29.629-21.023-45.949-46.978-62-10.915-6.751-21.255-9.649-30.377-12.2-10.1-2.83-18.831-5.276-25.071-12.192-8.712-16.249-11.319-26.315-7.97-30.773,4-5.329,16.793-2.6,30.336.294,13.577,2.9,27.615,5.9,36.975,2.17,51.829-17.85,107-79.537,160.356-139.195,10.839-12.119,22.048-24.651,32.934-36.473,29.78-31.017,47.329-65.347,64.3-98.548,26.11-51.079,50.772-99.325,116.244-136.828C1604.5,24.678,1618.95,13.411,1631.211,0h-2.82c-11.457,12.2-25.236,22.992-42.563,32.918C1556.189,49.9,1532.085,70.9,1512.14,97.139c-17.8,23.413-30.811,48.869-43.4,73.487-16.9,33.062-34.376,67.251-63.954,98.058-10.912,11.849-22.124,24.387-32.968,36.511-53.174,59.454-108.158,120.931-159.51,138.617-8.8,3.505-23.141.444-35.788-2.257-14.846-3.169-27.666-5.907-32.487.511-3.961,5.274-1.464,15.816,7.857,33.177a1.121,1.121,0,0,0,.145.206c6.661,7.453,15.7,9.986,26.17,12.918,8.986,2.518,19.173,5.371,29.831,11.964,25.405,15.715,32.342,30.875,46.16,61.077,2.631,5.749,5.611,12.265,8.979,19.324q4.709,9.868,8.911,19.307h2.339q-4.415-9.937-9.324-20.225c-3.36-7.044-6.338-13.552-8.965-19.294" transform="translate(-533.125 -6.326)" fill="#2e3038"/>
        <path id="Path_8350" data-name="Path 8350" d="M58.364,1015.936C50.962,998.513,31.843,983.7,0,970.712v.827c28.083,11.545,49.7,26.047,57.628,44.711,4.711,11.087,4.406,23.4-.867,36.755h.861c5.242-13.443,5.505-25.859.742-37.069" transform="translate(-0.127 -459.291)" fill="#2e3038"/>
        <path id="Path_8351" data-name="Path 8351" d="M1007.614,527.795c-20.744-14.826-32.774-16.938-43.388-18.8-10.733-1.884-20.871-3.664-38.239-18.07-1.583-1.313-3.089-2.571-4.543-3.785-18.522-15.469-28.724-23.99-77.1-44.79-12.88-4.388-31.3-19.083-40.07-37.673-6.193-13.131-6.925-26.166-2.176-38.746,7.138-18.9,5.426-32.413,3.771-45.479-1.818-14.348-3.536-27.9,7.87-46.535,11.894-19.433,42.792-34.19,76.885-36.723,28.409-2.112,52.2,4.781,63.672,18.465,16.646,15.867,19.725,37.519,22.7,58.459,1.75,12.3,3.559,25.017,8.144,36.193,11.171,27.243,22.9,41.1,38.029,44.93,16.013,4.051,35.673-3.687,60.1-23.669,173.341-141.813,183.088-164.592,202.509-209.974,10.032-23.441,22.516-52.615,60.822-106.989,11.767-16.7,27.223-25.623,43.588-35.066,8.6-4.963,17.493-10.1,26.2-16.569q1.943-1.445,3.885-2.971h-1.307c-1.016.789-2.035,1.569-3.056,2.329-8.666,6.446-17.539,11.567-26.119,16.518-16.443,9.489-31.973,18.451-43.842,35.3-38.355,54.444-50.858,83.659-60.9,107.135-19.369,45.263-29.092,67.982-202.281,209.67-24.213,19.809-43.643,27.5-59.394,23.512-14.859-3.762-26.419-17.473-37.486-44.457-4.548-11.084-6.349-23.751-8.091-36-3-21.075-6.1-42.867-22.913-58.893-11.607-13.848-35.646-20.842-64.313-18.716a137,137,0,0,0-45.652,11.386c-14.635,6.685-25.651,15.578-31.857,25.717-11.552,18.874-9.818,32.562-7.982,47.053,1.644,12.968,3.343,26.377-3.724,45.1-4.829,12.79-4.089,26.035,2.2,39.37,8.862,18.79,27.5,33.649,40.507,38.078,48.235,20.743,58.406,29.238,76.87,44.658,1.454,1.215,2.962,2.474,4.545,3.787,17.531,14.541,27.771,16.338,38.613,18.241,11.044,1.939,22.465,3.944,43.06,18.664,17.064,12.195,26.759,29.867,36.135,46.956a267.791,267.791,0,0,0,14.7,24.638h.98c-5.614-7.973-10.357-16.607-14.974-25.023-9.419-17.168-19.158-34.921-36.371-47.222" transform="translate(-372.597 -6.326)" fill="#2e3038"/>
        <path id="Path_8352" data-name="Path 8352" d="M44.122,965.889A391.963,391.963,0,0,0,0,947.341v.849A390.571,390.571,0,0,1,43.747,966.6c28.56,16.039,45.817,43.458,48.346,75.5h.8c-2.53-32.339-19.939-60.015-48.774-76.21" transform="translate(-0.127 -448.385)" fill="#2e3038"/>
        <path id="Path_8353" data-name="Path 8353" d="M933.829,558.367c-40.636-51.865-83.3-62.885-117.575-71.744-36.575-9.451-63-16.279-66.144-68.13-1.093-18.03-7.165-37.239-13.036-55.817-10-31.636-20.337-64.348-7.755-94.14,11.021-26.1,25.8-29.055,44.511-32.8a153.14,153.14,0,0,0,20.807-5.231c38.884-13.456,71.948-20.728,98.273-21.616,23.025-.776,41.66,3.318,55.4,12.171,29,18.688,32.389,55.071,35.111,84.305,1.916,20.58,3.429,36.835,13.094,41.395,7.323,3.457,18.63-.292,35.577-11.8,17.219-11.687,32.835-21.908,47.937-31.792,65.3-42.741,108.438-70.976,143.958-129.817,13.576-22.489,23.094-45.244,32.3-67.25,15.071-36.034,28.088-67.155,54.27-85.679,7.936-5.615,15.7-10.971,23.214-16.151q3.119-2.151,6.2-4.275h-1.408q-2.606,1.8-5.242,3.617c-7.513,5.181-15.281,10.539-23.221,16.156-26.369,18.658-39.427,49.876-54.546,86.024-9.193,21.98-18.7,44.708-32.244,67.146-35.427,58.684-78.505,86.88-143.713,129.561-15.1,9.887-30.723,20.11-47.947,31.8-16.691,11.329-27.743,15.056-34.787,11.734-9.252-4.365-10.746-20.42-12.639-40.746-2.738-29.407-6.145-66-35.474-84.9-13.879-8.942-32.672-13.084-55.859-12.3-26.406.891-59.549,8.178-98.508,21.66a152.57,152.57,0,0,1-20.7,5.2c-18.193,3.641-33.9,6.784-45.091,33.272-12.7,30.063-2.313,62.918,7.73,94.692,5.856,18.531,11.913,37.693,13,55.624,3.179,52.431,29.841,59.321,66.743,68.856,34.167,8.829,76.689,19.817,117.162,71.486a.435.435,0,0,0,.039.043c13.087,12.474,21.144,26.387,29.01,41.114h.907c-7.957-14.917-16.069-29.013-29.344-41.673" transform="translate(-337.366 -6.326)" fill="#2e3038"/>
        <path id="Path_8354" data-name="Path 8354" d="M70.558,948.4C43.96,939.379,20.637,931.338,0,924.064v.849c20.575,7.25,43.816,15.262,70.3,24.247,39.386,13.362,56.4,34.494,62.4,82.077h.81c-6.02-48.018-23.174-69.339-62.957-82.835" transform="translate(-0.127 -437.524)" fill="#2e3038"/>
        <path id="Path_8355" data-name="Path 8355" d="M862.249,553.757c-23.995-29.46-59.556-37.989-93.947-46.236-25.988-6.232-50.536-12.119-67.9-26.719-20.119-16.919-20.48-32.781-18.628-85.192,1.079-30.562-9.485-52.806-18.8-72.43-9.546-20.1-17.79-37.458-11.248-58.468,8.678-26.759,40.592-42.088,67.566-47.511,9.757-2.018,20.125-2.442,30.152-2.852,19.7-.8,40.078-1.638,58.185-14.252,37.388-26.047,67.016-35.658,90.577-29.384,29.464,7.846,44.534,39.7,57.83,67.813,7.418,15.682,14.424,30.494,23.18,39.745,9.858,10.416,20.674,12.51,34.034,6.59a.379.379,0,0,0,.058-.031c16.188-10.635,27.095-24.521,37.641-37.949,10.477-13.338,21.311-27.131,37.156-37.2,73.433-30.458,89.342-66.528,107.755-108.288,13.5-30.622,28.252-64.066,66.917-101.4h-1.07a278.089,278.089,0,0,0-26.676,29.752c-19.779,25.681-30.01,48.884-39.9,71.324-18.347,41.611-34.192,77.547-107.363,107.886a.4.4,0,0,0-.061.032c-15.975,10.14-26.858,24-37.383,37.4-10.5,13.369-21.361,27.195-37.424,37.756-28.45,12.578-41.281-14.55-56.138-45.958-13.369-28.266-28.523-60.3-58.347-68.244-23.8-6.337-53.647,3.31-91.241,29.5-17.915,12.481-38.171,13.309-57.76,14.109-10.059.411-20.461.836-30.279,2.867-27.194,5.467-59.383,20.961-68.169,48.052-6.637,21.313,1.669,38.8,11.287,59.054,9.282,19.542,19.8,41.691,18.729,72.058-1.863,52.713-1.492,68.673,18.913,85.833,17.505,14.722,42.142,20.63,68.225,26.884,34.261,8.217,69.688,16.712,93.544,46,17.5,17.042,23.715,30.531,30.181,45.743h.869c-6.548-15.419-12.759-29.044-30.461-46.282" transform="translate(-302.771 -6.326)" fill="#2e3038"/>
        <path id="Path_8356" data-name="Path 8356" d="M80.244,93.686C121.023,55.7,159.68,24.385,204.474,0h-4.358Q191.2,4.933,182.482,10.289C141.4,35.554,107.011,65.838,78.777,92.137c-30.889,29.705-46.443,57.638-60.167,82.283C12.29,185.772,6.521,196.125,0,205.206v3.56c7.389-9.808,13.671-21.089,20.475-33.309,13.65-24.513,29.121-52.3,59.768-81.771" transform="translate(-0.127 -6.326)" fill="#2e3038"/>
        <path id="Path_8357" data-name="Path 8357" d="M72.232,919.38c-4.36-1.018-8.478-1.979-12.254-3.074C37.8,909.869,17.9,903.473,0,897.219v.847c17.847,6.229,37.675,12.6,59.755,19.008,3.8,1.1,7.924,2.066,12.3,3.085,22.544,5.261,50.6,11.808,70.635,45.223,8.477,14.14,14.8,31.859,18.977,53.329h.736c-4.2-21.616-10.571-39.638-19.026-53.741-20.209-33.705-48.449-40.295-71.14-45.59" transform="translate(-0.127 -424.997)" fill="#2e3038"/>
        <path id="Path_8358" data-name="Path 8358" d="M772.886,540.135c-24.113-14.028-49.524-16.936-71.943-19.5-25.77-2.95-48.025-5.5-62.217-23.344-15.551-19.554-19.689-56.282-13.02-115.585,2.848-25.322-7.794-43.436-17.182-59.418-9.319-15.861-18.12-30.844-12.125-50.024,16.559-52.981,67.072-79.6,154.423-81.378,14.555-.3,27.262-9.975,40.715-20.221,19.525-14.872,41.653-31.727,76.263-27.088,19.677,2.638,29.59,11.869,41.068,22.557,8.9,8.29,18.11,16.863,33.107,23.66,18.857,8.549,34.453.511,54.2-9.664,19.331-9.962,43.39-22.387,78.413-22.108h.149c23.034,0,48.968-38.444,78.983-82.937,16.727-24.8,35.207-52.189,54.931-75.085h-1.056c-19.586,22.824-37.925,50.01-54.539,74.637-29.89,44.309-55.71,82.588-78.319,82.585h-.144c-35.207-.257-59.377,12.194-78.786,22.2-19.553,10.077-35,18.037-53.5,9.648-14.878-6.744-24.036-15.271-32.891-23.518-11.579-10.781-21.578-20.093-41.507-22.764-34.935-4.683-57.2,12.278-76.854,27.244-13.926,10.606-25.952,19.766-40.246,20.057-39.74.809-71.1,6.571-95.883,17.612-30.207,13.46-50.154,35.1-59.289,64.328-6.1,19.518,2.788,34.649,12.2,50.668,9.325,15.874,19.9,33.866,17.078,58.923-6.694,59.526-2.5,96.441,13.189,116.174,14.4,18.105,36.807,20.67,62.753,23.639C740.8,526,789.481,531.576,825.626,600.04h.919c-14.524-27.709-32.22-47.432-53.658-59.9" transform="translate(-277.132 -6.326)" fill="#2e3038"/>
        <path id="Path_8359" data-name="Path 8359" d="M755.184,573.266c-20.115-13.273-48.529-17.752-76.011-22.082-12.638-1.992-25.706-4.051-37.927-6.942-32.759-7.746-52.049-19.478-60.705-36.921-7.823-15.762-6.34-35.076-4.768-55.529,1.227-15.967,2.5-32.477-.055-49.715-1.692-28.6-9.912-49.686-17.166-68.292-11.8-30.262-21.113-54.165,4.736-94.02,16.182-24.949,56.828-51.077,88.758-57.055,10.9-2.041,21.591-3.2,31.933-4.323,27.992-3.036,54.431-5.9,79.306-25.443,66.117-51.932,103.2-32.477,135.919-15.312,14.572,7.645,28.439,14.922,43.532,14.92a46.066,46.066,0,0,0,6.947-.524l.071-.015c21.808-5.808,41.095-15.384,59.752-24.647,15.584-7.738,31.7-15.739,49.5-21.706l.073-.029c39.741-18.8,61.245-48.576,86.162-83.081,5.347-7.4,10.793-14.942,16.56-22.551h-2.677c-5.425,7.2-10.57,14.319-15.626,21.322-24.721,34.234-46.073,63.8-85.252,82.347-17.88,5.995-34.049,14.022-49.685,21.786-18.548,9.209-37.725,18.732-59.271,24.478-17.1,2.592-32.636-5.558-49.09-14.191C883.385,126.924,866,117.8,843.91,117.255c-25.225-.638-51.986,10.482-81.942,34.012-24.395,19.162-50.54,22-78.22,25-10.382,1.126-21.118,2.291-32.095,4.346-32.417,6.069-73.7,32.625-90.155,57.99-26.445,40.772-16.952,65.125-4.932,95.961,7.2,18.464,15.354,39.391,17.026,67.7l.006.058c2.526,17.046,1.265,33.445.047,49.306-1.594,20.751-3.1,40.351,4.984,56.641,8.961,18.055,28.7,30.145,62.126,38.049,12.305,2.91,25.411,4.975,38.092,6.973,27.253,4.3,55.433,8.738,75.162,21.755a59.955,59.955,0,0,1,21.938,24.993h2.273a61.532,61.532,0,0,0-23.035-26.773" transform="translate(-254.234 -6.326)" fill="#2e3038"/>
        <path id="Path_8360" data-name="Path 8360" d="M189.285,929.951c-7.937-22.958-24.725-25.041-58.171-29.189C101.74,897.118,59.8,891.91,0,869.34v2.282c59.62,22.417,101.491,27.616,130.853,31.257,32.565,4.04,48.911,6.068,56.445,27.955,4.93,14.322,6.128,37.131,5.465,74.866h2.131c.666-38.09-.562-61.148-5.609-75.749" transform="translate(-0.127 -411.988)" fill="#2e3038"/>
        <path id="Path_8361" data-name="Path 8361" d="M126.853,439.683q4.185,0,8.21-.179c25.28-1.12,45.433-7.77,59.9-19.768,14.151-11.736,20.391-21.793,20.232-32.611-.149-10.176-5.853-20.5-13.074-33.569-2.777-5.027-5.925-10.725-9-16.9-5.944-11.922-18.251-43.461-4.172-78.747,12.963-32.49,44.316-57.981,93.187-75.765l.986-.359c29.239-10.637,41.341-15.04,69.738-45,10.765-11.358,17.593-22.316,23.616-31.983,11.322-18.17,18.8-30.172,42.276-25.121,55.09,11.857,78.962.523,100.025-9.477,12.772-6.063,24.835-11.79,42.45-11.882,15.512-.6,31.677,1.343,47.309,3.226,17.827,2.146,34.667,4.173,49.414,2.41,8.373-.482,20.724-6.7,27.533-13.873C718.565,15.262,739.448,4.169,758.766,0H755.25C736.718,4.746,716.257,16.53,684.9,49.536c-6.576,6.923-18.939,13.162-27.023,13.628C643.2,64.919,626.41,62.9,608.63,60.755c-15.664-1.887-31.862-3.838-47.423-3.231-17.779.093-29.92,5.857-42.775,11.959C497.485,79.428,473.743,90.7,418.92,78.9c-24.031-5.17-31.623,7.023-43.124,25.481-6,9.635-12.808,20.557-23.517,31.856-28.268,29.825-40.318,34.209-69.432,44.8l-.986.359c-26.008,9.464-47.344,21.3-63.415,35.187-14.044,12.133-24.219,25.938-30.242,41.033C174,293.2,186.41,325,192.4,337.017c3.086,6.186,6.237,11.892,9.019,16.926,14.511,26.265,22.5,40.734-6.968,65.177-14.33,11.884-34.323,18.473-59.425,19.585-22.115.978-47.867-2.084-78.737-9.365C37.876,425,18.912,419.413,0,413.173v.843c18.849,6.213,37.749,11.774,56.106,16.1,27.2,6.416,50.449,9.564,70.747,9.564" transform="translate(-0.127 -6.326)" fill="#2e3038"/>
        <path id="Path_8362" data-name="Path 8362" d="M93.21,415.462c27.286,0,44.6-8.409,54.332-25.744,10.647-18.961,10.667-36.718,10.69-57.279.035-30.783.075-65.674,36.6-115.852,19.463-26.735,40.137-36.483,64.075-47.769,31.246-14.732,66.661-31.43,111.821-89.923q.827-1.07,1.63-2.124c10.221-13.366,18.3-23.923,49.774-18.559,60.554,10.319,79.8.837,96.78-7.527,10.19-5.02,19.815-9.758,37.363-9.278,103.725,2.865,110.785-6.215,123.6-22.7C684.163,13.2,689.063,6.906,698.572,0H697.22c-9.018,6.71-13.786,12.839-17.97,18.22C666.594,34.494,659.622,43.458,556.3,40.608c-17.74-.493-27.457,4.295-37.739,9.359-16.87,8.312-35.994,17.732-96.292,7.458-31.955-5.447-40.159,5.281-50.544,18.86q-.8,1.052-1.628,2.122c-45.041,58.339-80.364,74.994-111.529,89.687-24.037,11.333-44.8,21.12-64.381,48.021-36.682,50.387-36.721,85.416-36.757,116.322-.023,20.449-.043,38.11-10.587,56.889-13.83,24.626-43.308,30.949-95.586,20.5C36.093,406.79,19.071,402.348,0,396.582v.835c19,5.739,35.972,10.165,51.1,13.19,16.116,3.222,30.079,4.856,42.109,4.855" transform="translate(-0.127 -6.326)" fill="#2e3038"/>
        <path id="Path_8363" data-name="Path 8363" d="M120.513,297.585c15.975-52.629,37.854-124.707,145.571-175.86,26.379-10.474,41.993-29.4,58.524-49.433,3.51-4.255,7.14-8.653,10.85-12.924,33.734-38.828,69.385-36.428,110.67-33.65,9.374.631,19.068,1.283,29.158,1.5,18.281.389,36.578-2.079,57.758-4.939,20.393-2.755,43.508-5.876,71.34-6.992,13.222-.531,27.083-7,40.947-15.287h-1.565c-13.384,7.9-26.727,13.978-39.414,14.487-27.87,1.117-51,4.242-71.415,7-21.146,2.856-39.41,5.321-57.634,4.932-10.072-.216-19.756-.868-29.121-1.5-41.5-2.793-77.332-5.2-111.328,33.924-3.716,4.277-7.349,8.68-10.863,12.938-16.463,19.954-32.014,38.8-58.226,49.209-47.934,22.763-83.067,51.3-107.41,87.259-20.959,30.957-30.335,61.848-38.608,89.1-8.4,27.664-15.648,51.554-32.962,64.69C69.065,375.487,42.109,377.206,0,367.429v.822c18.207,4.205,33.262,6.155,45.836,6.155,51.354,0,61.236-32.54,74.677-76.821" transform="translate(-0.127 -6.326)" fill="#2e3038"/>
        <path id="Path_8364" data-name="Path 8364" d="M60.194,350.139c27.813-11.214,38.056-39.067,47.962-66,3.8-10.324,7.723-21,12.6-30.687,28.479-68.431,46.3-92.421,143.51-153.24,12.211-7.639,20.677-18.123,29.639-29.221,9.567-11.847,19.461-24.1,34.9-34.245C364.353,13.39,400.059,13.711,441.4,14.084c7.674.068,15.61.14,23.779.065C514.315,13.7,567.128,11.425,604.448,0h-2.789C564.62,10.734,513.145,12.906,465.17,13.349c-8.163.075-16.093,0-23.764-.065-41.476-.376-77.289-.7-113.034,22.79C312.824,46.29,302.89,58.591,293.285,70.486c-8.919,11.045-17.344,21.477-29.441,29.046-50.841,31.807-78.159,52.422-97.434,73.525-20.169,22.083-31.865,45.183-46.378,80.059-4.888,9.7-8.822,20.4-12.626,30.744-10.3,28-20.027,54.455-47.511,65.537C44.038,355.791,23.7,356.216,0,352.874v.8a192.391,192.391,0,0,0,26.6,2.058c12.663,0,23.946-1.7,33.6-5.593" transform="translate(-0.127 -6.326)" fill="#2e3038"/>
        <path id="Path_8365" data-name="Path 8365" d="M56.51,328.289c22.033-12.889,31.458-36.17,43.39-65.646C119.432,214.39,146.183,148.3,248.355,86.422c22.277-13.493,31.155-24.374,38.987-33.974,9.794-12,18.251-22.371,48.509-35.217,33.594-14.262,68.6-12.908,102.457-11.6,8.615.333,17.523.677,26.167.744C498.37,6.63,527.5,4.527,552.361,0h-4.64C523.909,3.976,496.3,5.816,464.481,5.573c-8.632-.066-17.534-.41-26.143-.742C404.4,3.519,369.3,2.161,335.538,16.493c-30.44,12.924-38.956,23.363-48.817,35.449-7.791,9.55-16.623,20.375-38.782,33.8-102.4,62.019-129.207,128.247-148.783,176.605C87.283,291.677,77.9,314.847,56.106,327.6,42.487,335.566,24.372,339.137,0,338.356v.794c2.181.069,4.321.109,6.4.109,21.334,0,37.587-3.647,50.105-10.97" transform="translate(-0.127 -6.326)" fill="#2e3038"/>
        <path id="Path_8366" data-name="Path 8366" d="M39.695,237.446c10.189-16.343,18.639-36.393,26.811-55.782l1.03-2.443C104.706,91.089,218.086,23.782,273.877,0h-2.033c-35.5,15.334-76.143,39.583-109.334,65.288-21.624,16.746-40.433,34.231-55.907,51.971-17.736,20.333-31.128,41.076-39.806,61.65l-1.029,2.443C49.513,219.922,32.705,259.8,1.081,272.585c-.359.145-.721.282-1.081.424v.853c.46-.18.925-.351,1.381-.535,14.343-5.8,26.875-17.535,38.313-35.881" transform="translate(-0.127 -6.326)" fill="#2e3038"/>
        <path id="Path_8367" data-name="Path 8367" d="M64.573,293.065c6.558-9.663,11.575-21.9,17.384-36.072,16.356-39.9,38.758-94.546,118.934-158.354,16.8-13.369,30.031-25.013,41.7-35.286C279.578,30.806,299.951,12.878,364.731.838c1.607-.3,3.168-.577,4.7-.838h-4.555l-.286.052c-65,12.08-85.428,30.06-122.518,62.7-11.666,10.266-24.89,21.9-41.674,35.261-35.553,28.294-62.923,57.27-83.674,88.583-17.742,26.771-27.59,50.792-35.5,70.093-5.792,14.13-10.794,26.332-17.31,35.934C50.582,313.34,27.585,322.191,0,324.025v.853c30.916-2.027,52.175-12.536,64.573-31.813" transform="translate(-0.127 -6.326)" fill="#2e3038"/>
        <path id="Path_8368" data-name="Path 8368" d="M65.565,217.828c9.5-23.509,20.257-50.155,40.648-75.187C156.324,81.124,226.051,29.024,296.225,0h-2.07c-69.7,29.213-138.792,81.036-188.562,142.136-20.467,25.125-31.253,51.831-40.77,75.393-10.339,25.6-19.27,47.71-37.608,62.086A73.977,73.977,0,0,1,0,292.733v.828a74.822,74.822,0,0,0,27.707-13.317c18.508-14.508,27.474-36.709,37.857-62.416" transform="translate(-0.127 -6.326)" fill="#2e3038"/>
        <path id="Path_8369" data-name="Path 8369" d="M38.224,295.246C56.944,281.09,65.912,258.6,76.3,232.561c8.653-21.7,18.46-46.293,35.868-71.613C136.462,125.605,227.11,31.261,328.23,0h-6.817C276.277,15.2,235.5,41.775,206.507,64.047c-44.368,34.079-80.236,72.617-96.1,95.693-17.544,25.517-27.4,50.228-36.091,72.031-10.266,25.744-19.132,47.977-37.377,61.774C27.183,300.921,15.145,305.7,0,308.019v2.1c.441-.066.889-.127,1.323-.2,14.965-2.41,27.035-7.209,36.9-14.67" transform="translate(-0.126 -6.326)" fill="#2e3038"/>
        <path id="Path_8370" data-name="Path 8370" d="M50.3,182.528c7.02-17.138,13.65-33.324,24.146-46.676C129.251,61.955,194.224,25.3,251.925,0h-1.988C192.556,25.316,128.191,62.04,73.8,135.366,63.246,148.8,56.6,165.034,49.555,182.224,38.584,209.008,27.281,236.6,0,253.827v.943c27.8-17.324,39.217-45.194,50.3-72.242" transform="translate(-0.127 -6.326)" fill="#2e3038"/>
        <path id="Path_8371" data-name="Path 8371" d="M22.348,205.123C75.46,87.288,154.747,38.852,231.8,0h-1.774C153.291,38.8,74.512,87.443,21.619,204.795A79.449,79.449,0,0,1,0,233.481V234.6a80.8,80.8,0,0,0,22.348-29.481" transform="translate(-0.127 -6.326)" fill="#2e3038"/>
        <path id="Path_8372" data-name="Path 8372" d="M107.351,0h-3.457C90.212,10.783,76.879,21.983,63.348,33.351,43.378,50.128,22.815,67.4,0,84.278V86.93C23.364,69.724,44.342,52.1,64.72,34.985,78.939,23.04,92.936,11.281,107.351,0" transform="translate(-0.127 -6.326)" fill="#2e3038"/>
        <path id="Path_8373" data-name="Path 8373" d="M78.665,64c32.49-26.312,61.66-47.262,88.417-64h-1.511c-26.485,16.645-55.331,37.4-87.409,63.38-24.981,20.231-44.8,44.794-63.973,68.548-4.757,5.9-9.465,11.729-14.19,17.419V150.6c4.934-5.927,9.847-12.011,14.812-18.165C33.955,108.709,53.75,84.18,78.665,64" transform="translate(-0.127 -6.326)" fill="#2e3038"/>
        <path id="Path_8374" data-name="Path 8374" d="M68.032,0H66.895c-9.346,9.242-19.131,19.436-29.5,30.725A210.6,210.6,0,0,1,0,58.652v.931A211.639,211.639,0,0,0,37.96,31.288C48.545,19.767,58.517,9.387,68.032,0" transform="translate(-0.127 -6.326)" fill="#2e3038"/>
        <path id="Path_8375" data-name="Path 8375" d="M78.953,47.358A742.565,742.565,0,0,1,144.711,0h-1.473A741.532,741.532,0,0,0,78.449,46.737c-20.986,17.035-42,38.041-62.332,58.354C10.762,110.444,5.392,115.808,0,121.13v1.124c5.583-5.5,11.14-11.057,16.683-16.6,20.312-20.3,41.317-41.29,62.27-58.3" transform="translate(-0.127 -6.326)" fill="#2e3038"/>
        <path id="Path_8376" data-name="Path 8376" d="M28.388,0H27.331A113.98,113.98,0,0,1,0,22.1v.929A114.675,114.675,0,0,0,28.388,0" transform="translate(-0.127 -6.326)" fill="#2e3038"/>
        <path id="Path_8377" data-name="Path 8377" d="M183.17,1.274C183.822.853,184.5.428,185.183,0h-1.5c-.316.2-.637.4-.946.6-45.2,29.141-77.142,50.422-108.18,79.556C49.29,103.873,26.016,131.592,0,169.322v1.407C60.56,82.622,103.128,52.884,183.17,1.274" transform="translate(-0.127 -6.326)" fill="#2e3038"/>
        <path id="Path_8378" data-name="Path 8378" d="M185.532,454.369c18.686-3.268,35.235-9.855,47.858-19.048,11.334-8.254,19.329-18.34,23.118-29.168,4.506-12.876,2.467-25.485-5.592-34.6-38.3-43.282-53.518-75.351-47.9-100.923,5.617-25.589,31.022-46.19,87.693-71.11,47.05-21.9,76.2-51.882,95.484-71.722,15.194-15.63,25.235-25.956,34.423-23.638,18.723,4.719,32.943,6.686,44.438,6.686,22.4,0,34.437-7.478,49.168-16.634a230.629,230.629,0,0,1,21.5-12.25c34.274-15.5,64.393-7.43,93.519.377,10.584,2.836,20.58,5.516,30.532,6.994A60.27,60.27,0,0,0,671.711,90.6c22.2,0,35.365-14.246,49.187-29.2,9.086-9.83,18.482-19.995,30.785-25.986,21.011-10.8,35.12-9.661,47.568-8.657C816.6,28.154,831.764,29.371,859.592,0h-1.1c-27.238,28.532-42.134,27.333-59.174,25.955-12.555-1.013-26.785-2.161-47.99,8.739-12.432,6.053-21.879,16.274-31.014,26.157-15.978,17.286-31.073,33.614-60.4,27.7-9.927-1.475-19.9-4.149-30.462-6.979-29.263-7.843-59.521-15.954-94.066-.328a231.361,231.361,0,0,0-21.586,12.294c-22.122,13.751-38.1,23.685-92.988,9.852-9.638-2.425-19.8,8.028-35.192,23.857-20.4,20.982-48.331,49.717-95.24,71.551-56.929,25.034-82.466,45.8-88.145,71.667-2.861,13.032-.484,27.38,7.266,43.866,7.845,16.689,21.2,35.582,40.82,57.76,7.862,8.886,9.844,21.206,5.436,33.8-3.736,10.675-11.631,20.629-22.834,28.786-12.525,9.121-28.959,15.659-47.525,18.905C114.1,466.052,56.035,452.327,0,430.638v.862c41.34,15.982,83.794,27.622,131.872,27.619a310.459,310.459,0,0,0,53.66-4.75" transform="translate(-0.127 -6.326)" fill="#2e3038"/>
        <path id="Path_8379" data-name="Path 8379" d="M49.7,0h-1.05C35.685,15.288,22.486,29.8,0,42.667v.92C23.1,30.459,36.468,15.626,49.7,0" transform="translate(-0.127 -6.326)" fill="#2e3038"/>
        <path id="Path_8380" data-name="Path 8380" d="M69.421,396.491c14.377,0,25.827-2.748,35-8.4C126.2,374.672,131.947,346.31,138.6,313.47c8.917-44.015,20.015-98.792,74.559-139.528a406.966,406.966,0,0,1,59-33.249c26.716-12.623,41.433-19.576,87.686-78.414C379.323,37.5,393.06,38.672,420.435,41.007c24.837,2.121,58.851,5.024,116.459-9.124,19.559-4.8,39.808-4.839,57.681-4.87,18.133-.031,33.794-.058,45.477-4.7C654.032,16.768,664.142,8.666,674.684,0h-3.366c-9.686,7.916-19.25,15.252-32.053,20.335-11.305,4.488-26.778,4.514-44.693,4.545-17.989.031-38.377.067-58.186,4.932-57.255,14.063-91.07,11.178-115.769,9.07-27.06-2.312-42.052-3.592-62.037,21.556l-.413.523c-45.942,58.443-60.5,65.32-86.921,77.805A408.834,408.834,0,0,0,211.928,172.2c-55.242,41.256-66.429,96.476-75.418,140.848-6.555,32.353-12.216,60.294-33.2,73.224-17.794,10.963-45.408,10.793-86.9-.538-5.62-1.534-11.073-2.953-16.4-4.3v2.2c5.151,1.309,10.417,2.681,15.841,4.161,21.436,5.853,38.962,8.7,53.58,8.7" transform="translate(-0.127 -6.326)" fill="#2e3038"/>
        <path id="Path_8381" data-name="Path 8381" d="M.931,0Q.464.222,0,.428V1.34Q1.382.747,2.776,0Z" transform="translate(-0.127 -6.326)" fill="#2e3038"/>
        <path id="Path_8382" data-name="Path 8382" d="M954.723,490.591c-10.587.556-19.766,6.176-23.384,14.317-3.522,7.924-1.437,17.255,5.871,26.279,9.7,21.991,25.646,30.621,37.341,31.365q.88.056,1.739.055c7.677,0,14.038-3.328,17.625-9.288,6.145-10.211,3.234-26.545-7.989-44.816-6.858-11.883-18.523-18.576-31.2-17.914m38.507,62.317c-3.695,6.14-10.482,9.366-18.627,8.846-11.47-.729-27.129-9.24-36.681-30.938a.432.432,0,0,0-.056-.091c-7.136-8.791-9.194-17.844-5.794-25.492,3.5-7.868,12.405-13.3,22.695-13.842.563-.029,1.123-.044,1.682-.044,11.72,0,22.391,6.472,28.789,17.564,11.068,18.018,13.979,34.051,7.993,44" transform="translate(-433.939 -235.23)" fill="#2e3038"/>
        <path id="Path_8383" data-name="Path 8383" d="M74.962,11.919Q81.7,5.885,88.325,0H87.117q-6.31,5.589-12.689,11.323c-12.976,11.624-26.394,23.643-40.523,35A366.7,366.7,0,0,1,0,70.346v.948A368.611,368.611,0,0,0,34.407,46.949c14.145-11.372,27.571-23.4,40.555-35.03" transform="translate(-0.127 -6.326)" fill="#2e3038"/>
        <path id="Path_8384" data-name="Path 8384" d="M960.962,697.214c-4.309-.743-12.089.853-15.88,19.886-.891,4.477-.308,8.06,1.733,10.649,3.839,4.869,11.986,5.186,16.854,5.375,1.135.044,2.115.083,2.82.168a22.331,22.331,0,0,0,2.684.171c7.822,0,9.79-4.862,10.245-7.968,1.419-9.662-8.235-26.514-18.458-28.281m17.667,28.164c-.81,5.513-4.971,7.972-12.042,7.12-.738-.09-1.733-.129-2.885-.173-4.73-.184-12.647-.492-16.258-5.072-1.89-2.4-2.421-5.76-1.577-10,2.71-13.615,8.023-20.456,14.959-19.253,9.867,1.705,19.177,18.019,17.8,27.376" transform="translate(-440.943 -331.603)" fill="#2e3038"/>
        <path id="Path_8385" data-name="Path 8385" d="M127.867,0h-1.4c-30.289,20.988-61.534,44.944-90.8,69.716C24.486,78.761,12.567,89.572,0,101.074v1.085C12.756,90.481,24.848,79.5,36.173,70.332,65.73,45.314,97.3,21.129,127.867,0" transform="translate(-0.127 -6.326)" fill="#2e3038"/>
        <path id="Path_8386" data-name="Path 8386" d="M168.12,481.659q3.771.069,7.46.069c22.725,0,43.095-1.953,59.268-5.7,20-4.637,33.782-11.9,40.972-21.584,17.385-23.421,23.581-44.266,18.944-63.726-4.1-17.224-15.977-31.366-27.458-45.043-14.594-17.384-28.379-33.8-26.018-55.246,1.164-10.576,6.147-21.49,15.232-33.366,10.109-13.215,25-27.273,45.527-42.976,87.121-66.651,144.014-74.571,170.171-73.37,16.125.758,27.9-8.255,40.38-17.782,7.4-5.651,15.06-11.494,24.227-15.927,40.509-22.064,70.468-10.25,99.439,1.174,17.492,6.9,34.026,13.419,52.379,12.6,13.362-1.539,22.635-11.028,33.371-22.016,13.508-13.823,28.817-29.49,57.11-35.291,33.583-6.885,58.308-16.779,77.811-31.135C869.817,22.855,879.714,12.072,889.5,0h-1.026C865.12,28.749,841.207,49.928,778.963,62.689,750.429,68.539,735.029,84.3,721.44,98.2c-10.63,10.879-19.81,20.274-32.862,21.779-18.166.794-34.612-5.684-52.022-12.549-29.142-11.492-59.277-23.376-100.1-1.141-9.222,4.46-16.911,10.328-24.347,16-12.362,9.436-24.026,18.353-39.858,17.619-26.265-1.219-83.372,6.728-170.694,73.533-20.583,15.746-35.523,29.853-45.676,43.124-9.176,12-14.211,23.04-15.392,33.765-2.4,21.781,11.493,38.328,26.2,55.848,23.089,27.5,46.963,55.941,8.485,107.778-7.073,9.529-20.7,16.689-40.51,21.282-17.862,4.142-40.869,6.082-66.533,5.614-49.293-.9-105.542-10.512-146.8-25.081-6.065-2.142-13.27-4.963-21.337-8.293v.865c7.957,3.281,15.069,6.063,21.07,8.182,41.33,14.6,97.677,24.223,147.05,25.126" transform="translate(-0.127 -6.326)" fill="#2e3038"/>
        <path id="Path_8387" data-name="Path 8387" d="M515.962,1028.309c-34.561,4.189-62.517,21.367-83.247,51.112h.984c20.565-29.265,48.218-46.18,82.36-50.318a137.816,137.816,0,0,1,16.586-.981c51.856,0,104.152,27.5,130.405,51.3h1.187c-28.924-26.579-90.634-58.1-148.275-51.112" transform="translate(-202.045 -485.707)" fill="#2e3038"/>
        <path id="Path_8388" data-name="Path 8388" d="M553.942,1083.7c-16.406,1.573-31.688,8.884-44.194,21.144-.244.238-.478.489-.719.731h.985c12.176-12,27.308-19.478,44-21.079q3.343-.32,6.728-.319c18.7,0,38.326,7.308,57.442,21.4h1.335c-21.852-16.352-44.413-23.906-65.58-21.875" transform="translate(-237.655 -511.866)" fill="#2e3038"/>
      </g>
    </g>
  </g>
  <rect id="Rectangle_256" data-name="Rectangle 256" width="1920" height="479" transform="translate(0 169)" fill="url(#linear-gradient)"/>
</svg>
