<svg xmlns="http://www.w3.org/2000/svg" width="74.126" height="17.153" viewBox="0 0 74.126 17.153">
  <g id="Group_123" data-name="Group 123" transform="translate(-53.457 -86.399)">
    <g id="Group_4" data-name="Group 4" transform="translate(76.862 87.415)">
      <path id="Path_5" data-name="Path 5" d="M173.119,104.836a.721.721,0,0,1-.579-.29l-9.75-13.038L158.9,96.481a.723.723,0,0,1-1.138-.891l4.474-5.717a.789.789,0,0,1,.577-.277.722.722,0,0,1,.57.29L173.7,103.68a.723.723,0,0,1-.578,1.156Z" transform="translate(-147.913 -89.596)" fill="#9496a3"/>
      <path id="Path_6" data-name="Path 6" d="M127.827,112.573a.722.722,0,0,1-.583-1.149l7.457-10.19a.723.723,0,0,1,.566-.3.745.745,0,0,1,.579.268l4.225,5.219a.723.723,0,0,1-1.123.909l-3.635-4.49-6.9,9.433A.723.723,0,0,1,127.827,112.573Z" transform="translate(-127.105 -97.333)" fill="#9496a3"/>
    </g>
    <g id="Group_5" data-name="Group 5" transform="translate(107.486 86.4)">
      <path id="Path_7" data-name="Path 7" d="M240.321,97.028h-9.788a.722.722,0,0,1-.692-.514l-2.619-8.668h-3.034a.723.723,0,0,1,0-1.445h3.571a.722.722,0,0,1,.692.514l2.619,8.668H239.8l2.035-6.079H231.649a.723.723,0,1,1,0-1.445H242.84a.723.723,0,0,1,.686.952l-2.519,7.524A.723.723,0,0,1,240.321,97.028Z" transform="translate(-223.466 -86.401)" fill="#9496a3"/>
      <path id="Path_8" data-name="Path 8" d="M243.765,128.357a2.141,2.141,0,1,1,2.141-2.141A2.144,2.144,0,0,1,243.765,128.357Zm0-2.838a.7.7,0,1,0,.7.7A.7.7,0,0,0,243.765,125.519Z" transform="translate(-235.853 -112.101)" fill="#9496a3"/>
      <path id="Path_9" data-name="Path 9" d="M269.247,128.357a2.141,2.141,0,1,1,2.141-2.141A2.144,2.144,0,0,1,269.247,128.357Zm0-2.838a.7.7,0,1,0,.7.7A.7.7,0,0,0,269.247,125.519Z" transform="translate(-253.237 -112.101)" fill="#9496a3"/>
    </g>
    <g id="Group_6" data-name="Group 6" transform="translate(53.457 86.399)">
      <path id="Path_10" data-name="Path 10" d="M67.409,103.554a.723.723,0,0,1-.57-.279L62.032,97.1l-7.8.553a.723.723,0,0,1-.5-1.286l12.3-9.813a.723.723,0,0,1,1.172.522l.929,15.707a.723.723,0,0,1-.721.766Zm-5.043-7.921a.723.723,0,0,1,.57.278l3.614,4.641-.709-12-9.393,7.493,5.867-.416Z" transform="translate(-53.457 -86.401)" fill="#9496a3"/>
      <path id="Path_11" data-name="Path 11" d="M79.939,97.076a.713.713,0,0,1-.293-.063.722.722,0,0,1-.366-.954l4.114-9.232a.722.722,0,1,1,1.32.588L80.6,96.648A.722.722,0,0,1,79.939,97.076Z" transform="translate(-71.03 -86.399)" fill="#9496a3"/>
    </g>
  </g>
</svg>
