<svg id="Group_623" data-name="Group 623" xmlns="http://www.w3.org/2000/svg" xmlns:xlink="http://www.w3.org/1999/xlink" width="37.336" height="44.445" viewBox="0 0 37.336 44.445">
  <defs>
    <clipPath id="clip-path">
      <rect id="Rectangle_257" data-name="Rectangle 257" width="37.336" height="44.445" fill="none" stroke="#fff" stroke-width="1.5"/>
    </clipPath>
  </defs>
  <g id="Group_622" data-name="Group 622" transform="translate(0 0)" clip-path="url(#clip-path)">
    <path id="Path_8929" data-name="Path 8929" d="M25.028,28.177l1.272-1.47A28.832,28.832,0,0,0,33.2,5.043L32.858,1.5,29.487,2.641a28.846,28.846,0,0,0-16.92,15.188l-3.485,7.52,11.794,7.624" transform="translate(2.145 0.354)" fill="none" stroke="#fff" stroke-linecap="round" stroke-linejoin="round" stroke-width="1.5"/>
    <path id="Path_8930" data-name="Path 8930" d="M18.622,29.268l2.124,9.264s13.333-9.915,7.4-21.352" transform="translate(4.399 4.058)" fill="none" stroke="#fff" stroke-linecap="round" stroke-linejoin="round" stroke-width="1.5"/>
    <path id="Path_8931" data-name="Path 8931" d="M10.819,23.376,1.5,25.244S5.067,9.016,17.931,9.73" transform="translate(0.354 2.293)" fill="none" stroke="#fff" stroke-linecap="round" stroke-linejoin="round" stroke-width="1.5"/>
    <path id="Path_8932" data-name="Path 8932" d="M24.3,14.384a2.946,2.946,0,1,1-.875-4.073,2.947,2.947,0,0,1,.875,4.073" transform="translate(4.46 2.324)" fill="none" stroke="#fff" stroke-width="1.5"/>
    <line id="Line_63" data-name="Line 63" x1="4.042" y2="5.214" transform="translate(9.019 28.809)" fill="none" stroke="#fff" stroke-linecap="round" stroke-linejoin="round" stroke-width="1.5"/>
    <line id="Line_64" data-name="Line 64" x1="6.435" y2="8.301" transform="translate(11.041 32.015)" fill="none" stroke="#fff" stroke-linecap="round" stroke-linejoin="round" stroke-width="1.5"/>
  </g>
</svg>
