<svg xmlns="http://www.w3.org/2000/svg" width="89.875" height="20.798" viewBox="0 0 89.875 20.798">
  <g id="Group_7" data-name="Group 7" transform="translate(-53.457 -86.399)">
    <g id="Group_4" data-name="Group 4" transform="translate(81.835 87.631)">
      <path id="Path_5" data-name="Path 5" d="M176.414,108.074a.874.874,0,0,1-.7-.351L163.891,91.914l-4.718,6.03a.876.876,0,0,1-1.38-1.08l5.424-6.932a.957.957,0,0,1,.7-.336.876.876,0,0,1,.692.351l12.507,16.725a.876.876,0,0,1-.7,1.4Z" transform="translate(-145.854 -89.596)" fill="#565867"/>
      <path id="Path_6" data-name="Path 6" d="M127.981,115.046a.876.876,0,0,1-.707-1.393l9.041-12.355a.877.877,0,0,1,.686-.359.9.9,0,0,1,.7.325l5.123,6.328a.876.876,0,0,1-1.362,1.1l-4.407-5.444-8.368,11.437A.876.876,0,0,1,127.981,115.046Z" transform="translate(-127.105 -96.568)" fill="#565867"/>
    </g>
    <g id="Group_5" data-name="Group 5" transform="translate(118.966 86.4)">
      <path id="Path_7" data-name="Path 7" d="M243.9,99.286H232.035a.876.876,0,0,1-.838-.623l-3.175-10.51h-3.679a.876.876,0,0,1,0-1.752h4.33a.876.876,0,0,1,.838.623l3.175,10.51h10.586l2.468-7.371H233.387a.876.876,0,1,1,0-1.752h13.568a.877.877,0,0,1,.831,1.154l-3.054,9.123A.877.877,0,0,1,243.9,99.286Z" transform="translate(-223.466 -86.401)" fill="#565867"/>
      <path id="Path_8" data-name="Path 8" d="M244.22,129.267a2.6,2.6,0,1,1,2.6-2.6A2.6,2.6,0,0,1,244.22,129.267Zm0-3.441a.844.844,0,1,0,.844.844A.845.845,0,0,0,244.22,125.826Z" transform="translate(-234.627 -109.558)" fill="#565867"/>
      <path id="Path_9" data-name="Path 9" d="M269.7,129.267a2.6,2.6,0,1,1,2.6-2.6A2.6,2.6,0,0,1,269.7,129.267Zm0-3.441a.844.844,0,1,0,.844.844A.845.845,0,0,0,269.7,125.826Z" transform="translate(-250.29 -109.558)" fill="#565867"/>
    </g>
    <g id="Group_6" data-name="Group 6" transform="translate(53.457 86.399)">
      <path id="Path_10" data-name="Path 10" d="M70.373,107.2a.876.876,0,0,1-.691-.338l-5.828-7.483-9.459.671a.876.876,0,0,1-.609-1.559L68.7,86.592a.876.876,0,0,1,1.421.633l1.127,19.045a.877.877,0,0,1-.874.928Zm-6.114-9.6a.877.877,0,0,1,.691.338l4.382,5.627-.86-14.544L57.083,98.1l7.114-.5Z" transform="translate(-53.457 -86.4)" fill="#565867"/>
      <path id="Path_11" data-name="Path 11" d="M80.092,99.345a.864.864,0,0,1-.356-.076.875.875,0,0,1-.444-1.156l4.988-11.194a.876.876,0,1,1,1.6.713L80.893,98.826A.875.875,0,0,1,80.092,99.345Z" transform="translate(-69.291 -86.399)" fill="#565867"/>
    </g>
  </g>
</svg>
