<svg xmlns="http://www.w3.org/2000/svg" width="59.572" height="27.968" viewBox="0 0 59.572 27.968">
  <g id="Group_1" data-name="Group 1" transform="translate(-104.236 -82.473)">
    <path id="Path_1" data-name="Path 1" d="M196.855,91.918c0-5.735-3.142-9.442-8-9.442H179.8v27.966h5.168v-9.124c1.03.013,3.393.042,3.883.042C193.713,101.36,196.855,97.653,196.855,91.918Zm-11.886-4.737c1.658.024,3.686.076,3.883.076,2.467,0,2.836,2.921,2.836,4.661s-.369,4.662-2.836,4.662c-.368,0-2.473-.017-3.883-.032Z" transform="translate(-41.381 -0.001)" fill="#fff"/>
    <path id="Path_2" data-name="Path 2" d="M216.21,82.476V103.63a2.534,2.534,0,0,1-.314,1.252,1.8,1.8,0,0,1-1.282.779l-4.113-.013-1.138,4.795H215a7.071,7.071,0,0,0,4.491-1.648,5.93,5.93,0,0,0,1.887-4.576V82.476Z" transform="translate(-57.57 -0.001)" fill="#fff"/>
    <path id="Path_3" data-name="Path 3" d="M112.933,98.507,109.5,82.476h-5.267l5.963,27.967h5.185l6.671-27.967h-5.292Z" transform="translate(0 -0.001)" fill="#fff"/>
    <path id="Path_4" data-name="Path 4" d="M149.112,98.505l-2.405-11.248-2.783,11.67,2.455,11.514h5.185l6.671-27.968h-5.293Z" transform="translate(-21.734)" fill="#fff"/>
  </g>
</svg>
