<svg xmlns="http://www.w3.org/2000/svg" width="191.351" height="111.665" viewBox="0 0 191.351 111.665">
  <g id="Group_696" data-name="Group 696" transform="translate(0.176 0.176)">
    <g id="Group_703" data-name="Group 703" transform="translate(0 0)">
      <path id="Path_8977" data-name="Path 8977" d="M166.825,48.754A48.254,48.254,0,1,1,118.571.5,48.254,48.254,0,0,1,166.825,48.754Z" transform="translate(10.448 0.074)" fill="none" stroke="#4566f6" stroke-linecap="round" stroke-linejoin="round" stroke-width="1.5"/>
      <circle id="Ellipse_78" data-name="Ellipse 78" cx="8.243" cy="8.243" r="8.243" transform="translate(103.476 18.032)" fill="none" stroke="#4566f6" stroke-linecap="round" stroke-linejoin="round" stroke-width="1.5"/>
      <circle id="Ellipse_79" data-name="Ellipse 79" cx="11.88" cy="11.88" r="11.88" transform="translate(112.822 63.917)" fill="none" stroke="#4566f6" stroke-linecap="round" stroke-linejoin="round" stroke-width="1.5"/>
      <path id="Path_8978" data-name="Path 8978" d="M103.665,22.432A60.889,60.889,0,0,0,119.356.8" transform="translate(15.403 0.118)" fill="none" stroke="#4566f6" stroke-linecap="round" stroke-linejoin="round" stroke-width="1.5"/>
      <path id="Path_8979" data-name="Path 8979" d="M71.028,35.847A76.223,76.223,0,0,0,95.078,27.7" transform="translate(10.553 4.116)" fill="none" stroke="#4566f6" stroke-linecap="round" stroke-linejoin="round" stroke-width="1.5"/>
      <path id="Path_8980" data-name="Path 8980" d="M71.422,58.872s50.895,1.82,72.131-52.223" transform="translate(10.612 0.987)" fill="none" stroke="#4566f6" stroke-linecap="round" stroke-linejoin="round" stroke-width="1.5"/>
      <path id="Path_8981" data-name="Path 8981" d="M73.492,65.43s53.271,1.905,75.5-54.661" transform="translate(10.92 1.6)" fill="none" stroke="#4566f6" stroke-linecap="round" stroke-linejoin="round" stroke-width="1.5"/>
      <path id="Path_8982" data-name="Path 8982" d="M118.421,68.406a84.892,84.892,0,0,0,37.044-43.083" transform="translate(17.595 3.762)" fill="none" stroke="#4566f6" stroke-linecap="round" stroke-linejoin="round" stroke-width="1.5"/>
      <path id="Path_8983" data-name="Path 8983" d="M84.429,74.361a85.833,85.833,0,0,0,17.29-3.426" transform="translate(12.545 10.539)" fill="none" stroke="#4566f6" stroke-linecap="round" stroke-linejoin="round" stroke-width="1.5"/>
      <path id="Path_8984" data-name="Path 8984" d="M160.8,48.84s-14.277,32.9-53.573,40.631" transform="translate(15.932 7.256)" fill="none" stroke="#4566f6" stroke-linecap="round" stroke-linejoin="round" stroke-width="1.5"/>
      <path id="Path_8985" data-name="Path 8985" d="M51.649,73.021l2.7-3.118A61.2,61.2,0,0,0,68.994,23.936l-.73-7.516L61.11,18.841a61.192,61.192,0,0,0-35.9,32.225l-7.4,15.955L42.838,83.2" transform="translate(2.647 2.439)" fill="none" stroke="#fff" stroke-linecap="round" stroke-linejoin="round" stroke-width="1.5"/>
      <path id="Path_8986" data-name="Path 8986" d="M39.6,77.877l4.506,19.657S72.4,76.5,59.807,52.23" transform="translate(5.884 7.76)" fill="none" stroke="#fff" stroke-linecap="round" stroke-linejoin="round" stroke-width="1.5"/>
      <path id="Path_8987" data-name="Path 8987" d="M20.273,64.164.5,68.126S8.067,33.694,35.362,35.21" transform="translate(0.074 5.224)" fill="none" stroke="#fff" stroke-linecap="round" stroke-linejoin="round" stroke-width="1.5"/>
      <path id="Path_8988" data-name="Path 8988" d="M51.69,45.108a6.252,6.252,0,1,1-1.856-8.644A6.251,6.251,0,0,1,51.69,45.108Z" transform="translate(5.971 5.268)" fill="none" stroke="#fff" stroke-width="1.5"/>
      <line id="Line_90" data-name="Line 90" x1="8.576" y2="11.063" transform="translate(18.627 74.701)" fill="none" stroke="#fff" stroke-linecap="round" stroke-linejoin="round" stroke-width="1.5"/>
      <line id="Line_91" data-name="Line 91" x1="13.654" y2="17.614" transform="translate(23.627 81.069)" fill="none" stroke="#fff" stroke-linecap="round" stroke-linejoin="round" stroke-width="1.5"/>
      <line id="Line_92" data-name="Line 92" y2="7.169" transform="translate(30.322 12.874)" fill="none" stroke="#4566f6" stroke-linecap="round" stroke-linejoin="round" stroke-width="1.5"/>
      <line id="Line_93" data-name="Line 93" x1="7.169" transform="translate(26.737 16.459)" fill="none" stroke="#4566f6" stroke-linecap="round" stroke-linejoin="round" stroke-width="1.5"/>
      <line id="Line_94" data-name="Line 94" y2="11.715" transform="translate(77.496 99.024)" fill="none" stroke="#4566f6" stroke-linecap="round" stroke-linejoin="round" stroke-width="1.5"/>
      <line id="Line_95" data-name="Line 95" x1="11.716" transform="translate(71.638 104.881)" fill="none" stroke="#4566f6" stroke-linecap="round" stroke-linejoin="round" stroke-width="1.5"/>
      <line id="Line_96" data-name="Line 96" y2="9.942" transform="translate(185.454 8.172)" fill="none" stroke="#fff" stroke-linecap="round" stroke-linejoin="round" stroke-width="1.5"/>
      <line id="Line_97" data-name="Line 97" x1="9.942" transform="translate(180.483 13.143)" fill="none" stroke="#fff" stroke-linecap="round" stroke-linejoin="round" stroke-width="1.5"/>
    </g>
  </g>
</svg>
