<svg xmlns="http://www.w3.org/2000/svg" xmlns:xlink="http://www.w3.org/1999/xlink" width="270" height="270" viewBox="0 0 270 270">
  <defs>
    <clipPath id="clip-path">
      <rect id="Rectangle_255" data-name="Rectangle 255" width="53.432" height="49.465" fill="none" stroke="#fff" stroke-width="1"/>
    </clipPath>
  </defs>
  <g id="Group_643" data-name="Group 643" transform="translate(-0.039 0.084)">
    <g id="Group_636" data-name="Group 636" transform="translate(0)">
      <g id="Group_633" data-name="Group 633" transform="translate(46.732 46.732)">
        <g id="Ellipse_70" data-name="Ellipse 70" transform="translate(0.307 0.183)" fill="none" stroke="#3e404c" stroke-width="2">
          <circle cx="88.5" cy="88.5" r="88.5" stroke="none"/>
          <circle cx="88.5" cy="88.5" r="87.5" fill="none"/>
        </g>
      </g>
      <g id="Group_613" data-name="Group 613" transform="translate(107.93 110.155)" clip-path="url(#clip-path)">
        <g id="Path_8928" data-name="Path 8928" transform="translate(0.309 0.31)" fill="none" stroke-linejoin="round">
          <path d="M36.913.563A15.366,15.366,0,0,0,26.441,4.635,15.428,15.428,0,0,0,.5,15.9C.461,29.116,23.838,48.338,26.308,48.346c3.292.01,25.957-16.446,26.006-32.29A15.433,15.433,0,0,0,36.913.563Z" stroke="none"/>
          <path d="M 15.9450569152832 1.499950408935547 C 12.09565353393555 1.499950408935547 8.473903656005859 2.996932983398438 5.746944427490234 5.715122222900391 C 3.019233703613281 8.434070587158203 1.510974884033203 12.05239105224609 1.500015258789062 15.90362930297852 C 1.491733551025391 18.71858024597168 2.644523620605469 22.06998062133789 4.926364898681641 25.86473083496094 C 6.868915557861328 29.09524154663086 9.556583404541016 32.53854370117188 12.91471481323242 36.09897994995117 C 15.61394500732422 38.96082305908203 18.66591644287109 41.79392242431641 21.5084056854248 44.07638168334961 C 24.24924468994141 46.2772102355957 25.90557861328125 47.23760986328125 26.34192276000977 47.3448371887207 C 26.68616676330566 47.31241989135742 28.17894554138184 46.78891754150391 31.19502449035645 44.70323944091797 C 34.05613708496094 42.72473907470703 37.12183380126953 40.14230346679688 39.8274040222168 37.431640625 C 43.18798446655273 34.06474304199219 45.88046646118164 30.64960098266602 47.83005523681641 27.28110122680664 C 50.13090515136719 23.30571174621582 51.30293655395508 19.52803039550781 51.31358337402344 16.05318069458008 C 51.32238388061523 13.01319122314453 50.39814376831055 10.10269165039062 48.64077377319336 7.636322021484375 C 46.91988372802734 5.221141815185547 44.54271697998047 3.415702819824219 41.76632690429688 2.415199279785156 C 40.20935440063477 1.854259490966797 38.57553482055664 1.567592620849609 36.90989685058594 1.563152313232422 L 36.86220550537109 1.563072204589844 C 33.25568389892578 1.563072204589844 29.79468536376953 2.915912628173828 27.11676597595215 5.372390747070312 C 26.73272514343262 5.724678039550781 26.14251518249512 5.722965240478516 25.76053428649902 5.368450164794922 C 23.08511543273926 2.885482788085938 19.61511611938477 1.511642456054688 15.9897346496582 1.500011444091797 L 15.9450569152832 1.499950408935547 M 15.9450569152832 0.4999465942382812 C 15.96066284179688 0.4999465942382812 15.97731781005859 0.4999732971191406 15.99293518066406 0.5000228881835938 C 20.03288650512695 0.5129814147949219 23.6956958770752 2.087841033935547 26.4407844543457 4.635471343994141 C 29.2004451751709 2.104019165039062 32.87138748168945 0.5499649047851562 36.91291427612305 0.5631523132324219 C 38.73541641235352 0.5680122375488281 40.48347473144531 0.8901023864746094 42.10527420043945 1.474399566650391 C 48.07454681396484 3.625480651855469 52.3329963684082 9.347110748291016 52.31358337402344 16.05607223510742 C 52.2650260925293 31.89635276794434 29.61180305480957 48.34648513793945 26.31098365783691 48.34648513793945 C 26.31017684936523 48.34648513793945 26.30886840820312 48.34648513793945 26.30806541442871 48.34648132324219 C 23.838134765625 48.33838272094727 0.4611740112304688 29.11629104614258 0.5000152587890625 15.90069198608398 C 0.5242500305175781 7.384841918945312 7.436668395996094 0.4999465942382812 15.9450569152832 0.4999465942382812 Z" stroke="none" fill="#fff"/>
        </g>
      </g>
      <g id="Group_634" data-name="Group 634" transform="translate(26.704 26.704)" opacity="0.5">
        <g id="Ellipse_70-2" data-name="Ellipse 70" transform="translate(0.336 0.211)" fill="none" stroke="#3e404c" stroke-width="1">
          <circle cx="108.5" cy="108.5" r="108.5" stroke="none"/>
          <circle cx="108.5" cy="108.5" r="108" fill="none"/>
        </g>
      </g>
      <g id="Group_635" data-name="Group 635" opacity="0.2">
        <g id="Ellipse_70-3" data-name="Ellipse 70" transform="translate(0.039 -0.084)" fill="none" stroke="#3e404c" stroke-width="1">
          <circle cx="135" cy="135" r="135" stroke="none"/>
          <circle cx="135" cy="135" r="134.5" fill="none"/>
        </g>
      </g>
    </g>
  </g>
</svg>
