<svg xmlns="http://www.w3.org/2000/svg" xmlns:xlink="http://www.w3.org/1999/xlink" width="1920" height="580" viewBox="0 0 1920 580">
  <defs>
    <clipPath id="clip-path">
      <rect id="Rectangle_20" data-name="Rectangle 20" width="580" height="1920" transform="translate(1340)" fill="#191a1f"/>
    </clipPath>
    <clipPath id="clip-path-2">
      <rect id="Rectangle_9" data-name="Rectangle 9" width="2805.636" height="877.281" fill="#30323c"/>
    </clipPath>
  </defs>
  <g id="Mask_Group_15" data-name="Mask Group 15" transform="translate(0 1920) rotate(-90)" clip-path="url(#clip-path)">
    <g id="Group_129" data-name="Group 129" transform="translate(2108.281) rotate(90)">
      <g id="Group_90" data-name="Group 90" transform="translate(0)" clip-path="url(#clip-path-2)">
        <path id="Path_8326" data-name="Path 8326" d="M3465.34,734.829v-1.471c-62.471,48.272-149.93,100.806-241.579,155.854-83.157,49.948-168.092,100.967-234.173,149.39h1.971c65.842-48.1,150.2-98.772,232.8-148.386,91.323-54.853,178.487-107.209,240.978-155.386" transform="translate(-659.704 -171.027)" fill="#30323c"/>
        <path id="Path_8327" data-name="Path 8327" d="M3230.5,624.989c68.569-30.9,127.787-57.589,183.81-116.986q2.758-2.923,5.485-5.933v-1.9c-57.92,64.325-118.726,91.735-189.775,123.754-47.919,21.6-102.231,46.073-163.115,85.61-69.9,45.388-137.59,103.595-206.952,177.944a684.728,684.728,0,0,0-76.809,99.682h1.387a683.178,683.178,0,0,1,76.278-98.885c155.618-166.809,274.316-220.3,369.691-263.285" transform="translate(-614.162 -119.584)" fill="#30323c"/>
        <path id="Path_8328" data-name="Path 8328" d="M2968.656,574.406c147.448-103.215,314.23-219.965,422.022-464.561v-7.789c-107.338,248.261-275.39,365.9-423.811,469.8-89.6,62.716-174.226,121.955-231.986,201.971-29.625,41.038-57.4,82.97-83.732,125.508h3.67c25.99-41.918,53.394-83.239,82.589-123.683,57.454-79.589,141.872-138.681,231.248-201.244" transform="translate(-585.043 -31.758)" fill="#30323c"/>
        <path id="Path_8329" data-name="Path 8329" d="M2929.558,449.855c74.946-61.365,145.736-119.328,206.983-203,50.1-68.445,89.773-148.5,121.876-246.855h-1.3c-80.626,246.151-196.6,341.11-328.3,448.95-78.7,64.442-160.085,131.076-245.214,236.384C2637.74,742.07,2594.7,805.6,2553.969,876.819h1.212C2684.6,650.43,2812.919,545.358,2929.558,449.855" transform="translate(-563.604 -9.244)" fill="#30323c"/>
        <path id="Path_8330" data-name="Path 8330" d="M2688.55,539.555c46.9-45.1,93.883-86.436,139.313-126.409,62.386-54.887,121.312-106.733,177.677-165.655,48.023-50.2,83.579-100.473,111.9-158.2A738.949,738.949,0,0,0,3153.791,0h-1.136c-30.97,91.471-72.461,167.758-147.96,246.681-56.331,58.886-115.238,110.715-177.6,165.587-45.441,39.98-92.428,81.32-139.352,126.444-171.746,165.151-195.631,188.123-253.491,338.107h1.254c57.659-149.376,81.656-172.454,253.047-337.264" transform="translate(-537.193 -9.244)" fill="#30323c"/>
        <path id="Path_8331" data-name="Path 8331" d="M2603.361,519.967c16.133-14.142,31.371-27.5,44.74-39.741,20.489-18.758,39.862-36.437,58.6-53.536,167.5-152.863,259.772-237.067,316.272-333.258A503.111,503.111,0,0,0,3065.622,0h-.98c-49.071,143.223-140.185,226.382-358.732,425.826-18.735,17.1-38.108,34.778-58.6,53.537-13.363,12.233-28.595,25.587-44.723,39.723C2543.573,570.821,2470.124,635.2,2435.6,692.355c-32.779,47.346-60.282,102.009-84.082,167.115q-3.153,8.623-6.161,17.349h1.154c22.293-64.276,49.908-125.819,90.069-183.83,34.448-57.026,107.82-121.343,166.777-173.022" transform="translate(-517.584 -9.244)" fill="#30323c"/>
        <path id="Path_8332" data-name="Path 8332" d="M2616.351,421.914c104.017-92.343,211.574-187.832,268.765-280.292,32.635-52.762,57.5-98.4,76.964-141.622h-1.212c-18.55,41.051-42.964,86.39-76.747,141.007-57.1,92.315-164.593,187.745-268.546,280.033-97.837,86.857-199,176.672-253.431,260.882-42.977,66.494-66.467,130.369-83.523,194.9h1.211c17.025-64.332,40.472-128.009,83.294-194.262,54.342-84.077,155.447-173.838,253.225-260.643" transform="translate(-502.861 -9.244)" fill="#30323c"/>
        <path id="Path_8333" data-name="Path 8333" d="M2486.65,468.715c84.148-74.894,188.873-168.1,301.816-315.528,38.328-50.03,69.719-100.88,94.47-153.188h-3.421c-23.864,50.239-54.6,100.477-93.525,151.291-112.762,147.192-217.364,240.29-301.413,315.1C2429.945,515.01,2382.763,557,2348.371,600.876l-.048.066c-73.1,104.053-107.089,193-128.334,275.877h3.224c21.193-82.37,55.082-170.768,127.642-274.058,34.217-43.638,81.291-85.537,135.795-134.046" transform="translate(-489.926 -9.244)" fill="#30323c"/>
        <path id="Path_8334" data-name="Path 8334" d="M2355.1,510.888c14.262-12.445,30.8-26.277,48.3-40.921,76-63.578,180.084-150.65,268.706-265.541,48.378-62.718,87.51-128.025,116.309-194.108q2.242-5.146,4.4-10.319h-1.062c-92.591,221.011-271.1,370.352-389.106,469.072-17.509,14.648-34.048,28.484-48.32,40.935-18.39,16.046-40.711,40.389-59.709,65.119-16.623,21.641-39.234,54.616-52.538,88.824-35.65,91.661-47.672,138.3-65.5,212.868h1.2c17.78-74.364,29.81-120.968,65.388-212.444,23.945-61.565,81.359-126.817,111.925-153.486" transform="translate(-480.351 -9.244)" fill="#30323c"/>
        <path id="Path_8335" data-name="Path 8335" d="M2216.706,587.021c37.891-76.346,84.912-110.7,144.444-154.206,46.643-34.082,99.51-72.713,163.108-140.869,85.928-92.085,107.477-133.519,150.406-216.064C2686.128,53.839,2698.9,29.28,2714.8,0h-1.329c-15.765,29.042-28.454,53.435-39.847,75.343-42.881,82.452-64.4,123.837-150.224,215.807-63.523,68.075-116.342,106.67-162.944,140.723C2300.8,475.467,2253.676,509.9,2215.68,586.462c-34.983,58.981-48.761,129.385-66.205,218.519-4.5,23.009-9.184,46.918-14.445,71.838h1.179c5.278-24.941,9.944-48.771,14.414-71.614,17.422-89.022,31.183-159.339,66.082-218.184" transform="translate(-471.184 -9.244)" fill="#30323c"/>
        <path id="Path_8336" data-name="Path 8336" d="M2319.991,405.344c58.654-46.642,125.135-99.505,192.738-182.681C2564.377,159.12,2610.3,85.546,2651.595,0h-1.25c-110.482,229.01-231.094,324.92-331.083,404.428-48.81,38.814-90.963,72.333-124.478,115.366-36.787,47.231-58.658,101.07-68.829,169.43-9.63,64.716-21.554,127.071-35.942,187.595h1.324c14.212-60.052,26.077-122.254,35.773-187.423,22.053-148.213,97.439-208.158,192.881-284.053" transform="translate(-461.253 -9.244)" fill="#30323c"/>
        <path id="Path_8337" data-name="Path 8337" d="M2233.81,416.854a1175.844,1175.844,0,0,0,140.413-119.108,1119.908,1119.908,0,0,0,118.856-139A1014.664,1014.664,0,0,0,2587.254,0h-1.689c-75.637,158.607-198.461,304.777-352.439,415.907-62.54,45.136-102.773,94.357-126.614,154.9-21.323,54.15-27.091,111.17-33.2,171.536-4.307,42.582-8.843,87.393-19.352,134.475h1.279c10.362-46.634,14.857-91.071,19.236-134.358,12.333-121.912,22.983-227.2,159.333-325.606" transform="translate(-453.3 -9.244)" fill="#30323c"/>
        <path id="Path_8338" data-name="Path 8338" d="M2086.842,504.883c42.885-63.864,88.656-97.447,137.114-133,48.2-35.367,102.832-75.451,162.084-151.745C2430.657,162.687,2473.827,89.972,2516.6,0h-3.385c-113.752,239.233-207.142,307.763-291.106,369.369-48.683,35.72-94.667,69.458-137.858,133.777-43.009,64.046-48.01,141.434-53.306,223.365-3.227,49.929-6.514,100.762-18.57,150.308h3.22c11.957-49.526,15.239-100.265,18.46-150.107,5.268-81.5,10.244-158.481,52.784-221.829" transform="translate(-444.126 -9.244)" fill="#30323c"/>
        <path id="Path_8339" data-name="Path 8339" d="M1985.266,723.973c9.1-110.772,18.5-225.314,110.429-300.538,107.568-88.028,172.338-148.8,223.559-209.756C2374.721,147.669,2413.773,81.335,2444.911,0h-1.255c-65.107,169.657-165.407,272.531-348.7,422.529-41.395,33.874-69.724,78.7-86.607,137.032-15.012,51.87-19.707,109.033-24.246,164.315-4.251,51.754-8.592,104.561-21.642,152.942h1.3q3.035-11.246,5.573-23.293c8.687-41.32,12.372-86.175,15.934-129.553" transform="translate(-433.114 -9.244)" fill="#30323c"/>
        <path id="Path_8340" data-name="Path 8340" d="M2025.5,432.728c32.4-30.715,60.63-56.261,85.538-78.8,66.746-60.4,114.971-104.033,185.65-192.288C2333.405,115.792,2366.994,60.557,2395.142,0h-1.5c-26.412,56.787-59.351,112.815-97.867,160.908-70.621,88.183-118.816,131.794-185.522,192.153C2085.34,375.6,2057.1,401.155,2024.7,431.88c-72.222,68.471-87.112,188.2-101.51,303.986-6.2,49.848-12.208,98.081-22.486,140.953h1.2c10.254-42.865,16.254-91.033,22.445-140.809,14.372-115.583,29.236-235.1,101.153-303.283" transform="translate(-419.489 -9.244)" fill="#30323c"/>
        <path id="Path_8341" data-name="Path 8341" d="M2019.9,369.834c29.362-23.912,65.906-53.669,110.672-99.066,52.442-53.18,105.52-116.876,162.269-194.729C2314.568,46.228,2330.96,21.794,2343.558,0h-1.4c-13.079,22.652-29.586,46.985-50.264,75.351-128.21,175.886-211.742,243.908-272.735,293.576-96.64,78.7-125.805,102.445-162.174,439.987-2.924,27.14-5.865,49.337-8.937,67.9h1.186c3.065-18.554,6-40.716,8.914-67.779,36.317-337.063,65.4-360.744,161.751-439.206" transform="translate(-407.874 -9.244)" fill="#30323c"/>
        <path id="Path_8342" data-name="Path 8342" d="M1820.363,727.756c5.382-104.723,9.272-180.388,71.329-286.484,32.127-54.928,67.512-81.082,104.972-108.772,21.357-15.787,43.441-32.111,65.6-54.448,84.118-84.806,144.7-150.631,186.776-216.66A487.806,487.806,0,0,0,2282.52,0h-1.347c-41.536,92.417-117.426,174.076-219.741,277.231-22.093,22.274-44.14,38.569-65.462,54.33-37.56,27.764-73.037,53.987-105.287,109.121C1862.04,489.651,1843.9,535.638,1833.6,585.4c-9.432,45.567-11.735,90.39-14.4,142.292-1.987,38.628-4.237,82.411-9.947,132.24-.666,5.808-1.444,11.418-2.3,16.883h1.184c.85-5.423,1.621-10.99,2.281-16.75,5.715-49.865,7.965-93.667,9.953-132.312" transform="translate(-398.807 -9.244)" fill="#30323c"/>
        <path id="Path_8343" data-name="Path 8343" d="M1989.493,195.258C2076.641,112.052,2128.1,57.264,2157.029,0h-1.448c-27.919,54.819-76.842,108.432-166.9,194.413-56.759,54.192-99.092,96.149-134.7,137.807-39.561,46.284-68.273,89.555-90.361,136.174-45.743,96.554-67.426,215.722-73.946,408.425h1.17c13.186-389.558,88.5-480.925,298.641-681.561" transform="translate(-372.938 -9.244)" fill="#30323c"/>
        <path id="Path_8344" data-name="Path 8344" d="M1764.635,710.772c2.868-100.971,4.056-142.764,57.021-246.627,26.259-52.251,55.678-90.545,92.583-120.516C2031.645,248.286,2120,158.785,2176.849,77.613Q2204.919,37.531,2222.9,0h-3.461q-17.725,36.625-45.149,75.824c-56.682,80.936-144.839,170.224-262.021,265.385-37.261,30.259-66.941,68.878-93.4,121.529-53.279,104.479-54.473,146.477-57.355,247.946-1.154,40.639-2.591,91.217-7.79,159.254q-.261,3.407-.673,6.881h3.136q.389-3.351.644-6.644c5.205-68.11,6.644-118.729,7.8-159.4" transform="translate(-386.918 -9.244)" fill="#30323c"/>
        <path id="Path_8345" data-name="Path 8345" d="M1604.339,796.629c7.6-104.876,52.221-212.506,97.273-313.758,73.985-166.281,169.066-253.938,252.953-331.278C2008.179,102.164,2056.579,57.533,2090.328,0h-1.362c-33.661,57.118-81.84,101.546-135.193,150.733-83.97,77.416-179.145,165.16-253.228,331.662-45.095,101.347-89.758,209.083-97.371,314.148-2.782,38.4.965,57.242,4.933,77.194q.305,1.538.611,3.081h1.192q-.327-1.66-.656-3.309c-3.953-19.872-7.687-38.642-4.915-76.881" transform="translate(-353.641 -9.244)" fill="#30323c"/>
        <path id="Path_8346" data-name="Path 8346" d="M1528.65,815.832c-10.979-36-18.912-62.006,26.787-122.942,22.98-30.88,31.592-63.9,40.709-98.862,5.017-19.238,10.2-39.13,18.013-58.68,55.69-139.43,111.813-216.651,191.059-318.518,29.9-34.364,65.554-65.7,100.031-96.007,34.5-30.325,70.174-61.684,99.234-95.5Q2015.394,12.633,2024.566,0h-1.276c-31.7,43.368-74.5,80.991-118.813,119.944-34.505,30.332-70.187,61.695-100.162,96.143-79.327,101.973-135.495,179.255-191.242,318.827-7.835,19.617-13.032,39.547-18.058,58.818-9.088,34.847-17.67,67.761-40.514,98.458-46.054,61.409-38.049,87.656-26.969,123.984,4.659,15.274,9.94,32.587,11.716,55.036.149,1.882.293,3.745.438,5.609h1.172c-.147-1.894-.294-3.788-.445-5.7-1.786-22.576-7.086-39.954-11.763-55.286" transform="translate(-335.277 -9.244)" fill="#30323c"/>
        <path id="Path_8347" data-name="Path 8347" d="M1416.941,699.413C1425.7,660.189,1440,642.862,1474.549,601c30.623-37.108,76.9-93.184,148.674-200.561,14.629-21.885,30.811-50.9,47.944-81.628,25.868-46.39,55.188-98.969,89.456-146.4,24.751-34.257,62.1-60.532,101.647-88.349,33.279-23.41,67.692-47.616,95.647-77.763q2.9-3.132,5.662-6.3h-1.464c-28.588,32.506-64.873,58.034-100.517,83.107-39.628,27.875-77.057,54.2-101.922,88.62-34.308,47.486-63.646,100.1-89.53,146.514-17.121,30.7-33.292,59.7-47.895,81.547-71.742,107.327-118,163.377-148.6,200.467-34.673,42.016-49.025,59.406-57.847,98.9-14.253,63.814,2.245,103.352,21.348,149.135,3.88,9.3,7.806,18.71,11.564,28.526h1.252c-3.812-9.979-7.8-19.536-11.737-28.977-19.026-45.6-35.458-84.978-21.286-148.429" transform="translate(-311.332 -9.244)" fill="#30323c"/>
        <path id="Path_8348" data-name="Path 8348" d="M0,1011.826v4.919c11.9,15.166,18.212,33.622,19.092,55.619.419,10.441.632,19.589.754,27.67h3.118c-.122-8.112-.336-17.3-.756-27.794-1.024-25.6-9.177-45.221-22.208-60.413" transform="translate(-0.185 -232.459)" fill="#30323c"/>
        <path id="Path_8349" data-name="Path 8349" d="M1308.684,819.071c-19.808-43.3-30.721-67.143-68.647-90.6-15.949-9.866-31.059-14.1-44.39-17.834-14.761-4.135-27.517-7.709-36.635-17.815-12.73-23.744-16.54-38.454-11.647-44.968,5.846-7.788,24.539-3.8,44.33.429,19.84,4.236,40.352,8.615,54.031,3.171,75.737-26.083,156.358-116.226,234.324-203.4,15.839-17.709,32.217-36.021,48.125-53.3,43.517-45.324,69.161-95.49,93.958-144,38.154-74.64,74.191-145.14,169.864-199.943C1817.739,36.062,1838.847,19.6,1856.764,0h-4.12c-16.742,17.83-36.877,33.6-62.2,48.1-43.311,24.809-78.533,55.5-107.678,93.844-26.008,34.212-45.023,71.411-63.412,107.384-24.695,48.313-50.233,98.272-93.454,143.289-15.945,17.315-32.329,35.635-48.175,53.353-77.7,86.878-158.047,176.713-233.087,202.557-12.864,5.122-33.815.649-52.3-3.3-21.693-4.63-40.427-8.631-47.473.747-5.788,7.707-2.139,23.111,11.481,48.48a1.638,1.638,0,0,0,.211.3c9.734,10.89,22.944,14.592,38.241,18.877,13.131,3.679,28.016,7.849,43.59,17.483,37.124,22.963,47.26,45.116,67.452,89.249,3.844,8.4,8.2,17.922,13.121,28.238q6.882,14.42,13.021,28.213h3.418q-6.452-14.52-13.625-29.555c-4.91-10.293-9.261-19.8-13.1-28.193" transform="translate(-252.166 -9.244)" fill="#30323c"/>
        <path id="Path_8350" data-name="Path 8350" d="M85.286,1036.8C74.47,1011.337,46.531,989.686,0,970.712v1.208c41.037,16.87,72.623,38.062,84.21,65.334,6.884,16.2,6.438,34.191-1.267,53.709H84.2c7.66-19.644,8.045-37.787,1.085-54.167" transform="translate(-0.185 -223.388)" fill="#30323c"/>
        <path id="Path_8351" data-name="Path 8351" d="M1104.2,771.25c-30.313-21.664-47.891-24.751-63.4-27.473-15.684-2.754-30.5-5.355-55.877-26.405-2.312-1.918-4.514-3.757-6.639-5.531-27.065-22.6-41.974-35.056-112.658-65.45-18.822-6.412-45.74-27.885-58.554-55.051-9.05-19.188-10.12-38.236-3.18-56.618,10.431-27.623,7.929-47.365,5.51-66.457-2.657-20.966-5.167-40.769,11.5-68,17.381-28.4,62.53-49.961,112.35-53.662,41.514-3.086,76.278,6.986,93.042,26.982,24.324,23.185,28.824,54.825,33.176,85.424,2.557,17.972,5.2,36.556,11.9,52.887,16.324,39.809,33.463,60.056,55.571,65.655,23.4,5.92,52.127-5.388,87.818-34.586,253.3-207.226,267.541-240.513,295.921-306.829,14.659-34.254,32.9-76.884,88.877-156.34,17.195-24.408,39.781-37.442,63.693-51.241,12.567-7.252,25.563-14.752,38.28-24.212q2.839-2.111,5.678-4.341h-1.91c-1.485,1.154-2.973,2.293-4.465,3.4-12.664,9.42-25.629,16.9-38.167,24.138-24.027,13.865-46.722,26.962-64.065,51.58-56.046,79.557-74.317,122.249-89,156.553-28.3,66.141-42.511,99.34-295.587,306.384-35.381,28.947-63.774,40.186-86.79,34.358-21.713-5.5-38.606-25.533-54.776-64.964-6.645-16.2-9.278-34.707-11.824-52.608-4.38-30.8-8.91-62.64-33.483-86.058-16.961-20.236-52.089-30.456-93.979-27.349-23.326,1.733-47.018,7.642-66.71,16.638-21.386,9.769-37.483,22.764-46.551,37.579-16.881,27.58-14.346,47.582-11.664,68.757,2.4,18.949,4.885,38.544-5.442,65.9-7.057,18.689-5.975,38.045,3.216,57.529,12.95,27.457,40.185,49.17,59.191,55.643,70.484,30.311,85.347,42.724,112.327,65.258,2.125,1.775,4.329,3.615,6.641,5.534,25.618,21.249,40.581,23.874,56.423,26.655,16.139,2.834,32.827,5.764,62.923,27.273,24.935,17.82,39.1,43.643,52.8,68.616,6.633,12.091,13.442,24.492,21.474,36h1.432c-8.2-11.651-15.134-24.268-21.882-36.565-13.763-25.087-28-51.028-53.147-69" transform="translate(-176.275 -9.244)" fill="#30323c"/>
        <path id="Path_8352" data-name="Path 8352" d="M64.475,974.444A572.772,572.772,0,0,0,0,947.341v1.241a570.729,570.729,0,0,1,63.927,26.9c41.733,23.438,66.951,63.5,70.646,110.33h1.174c-3.7-47.256-29.136-87.7-71.272-111.363" transform="translate(-0.185 -218.233)" fill="#30323c"/>
        <path id="Path_8353" data-name="Path 8353" d="M1031.211,815.924c-59.38-75.788-121.716-91.892-171.808-104.837-53.445-13.81-92.061-23.789-96.654-99.557-1.6-26.347-10.47-54.417-19.049-81.564-14.611-46.229-29.718-94.03-11.332-137.563,16.105-38.135,37.7-42.457,65.043-47.929,9.689-1.938,19.709-3.943,30.405-7.644,56.819-19.663,105.135-30.29,143.6-31.587,33.646-1.134,60.876,4.848,80.952,17.785,42.379,27.308,47.329,80.473,51.307,123.193,2.8,30.072,5.011,53.826,19.134,60.489,10.7,5.052,27.223-.426,51.988-17.236,25.162-17.077,47.981-32.013,70.049-46.457,95.419-62.456,158.457-103.716,210.362-189.7,19.839-32.862,33.746-66.114,47.195-98.271,22.023-52.656,41.044-98.132,79.3-125.2,11.6-8.2,22.946-16.031,33.922-23.6Q1620.188,3.1,1624.682,0h-2.058q-3.808,2.63-7.66,5.285c-10.978,7.571-22.33,15.4-33.932,23.608-38.533,27.264-57.614,72.882-79.706,125.7-13.433,32.119-27.324,65.33-47.116,98.118-51.768,85.753-114.717,126.956-210,189.323-22.071,14.447-44.895,29.385-70.064,46.468-24.39,16.555-40.539,22-50.834,17.147-13.52-6.379-15.7-29.839-18.469-59.54-4-42.971-8.979-96.451-51.837-124.067-20.281-13.067-47.743-19.119-81.624-17.971-38.586,1.3-87.017,11.95-143.947,31.65-10.622,3.676-20.6,5.672-30.251,7.6-26.584,5.32-49.544,9.914-65.891,48.619-18.553,43.93-3.38,91.941,11.295,138.371,8.558,27.078,17.408,55.079,19,81.282,4.646,76.616,43.606,86.684,97.529,100.618,49.927,12.9,112.063,28.958,171.206,104.46a.623.623,0,0,0,.057.062c19.124,18.228,30.9,38.559,42.392,60.078h1.326c-11.628-21.8-23.482-42.4-42.88-60.895" transform="translate(-159.619 -9.244)" fill="#30323c"/>
        <path id="Path_8354" data-name="Path 8354" d="M103.1,959.628C64.238,946.443,30.156,934.693,0,924.064v1.24c30.065,10.594,64.026,22.3,102.729,35.431,57.554,19.525,82.423,50.405,91.188,119.937H195.1c-8.8-70.167-33.864-101.324-92-121.045" transform="translate(-0.185 -213.098)" fill="#30323c"/>
        <path id="Path_8355" data-name="Path 8355" d="M960.812,809.188c-35.062-43.049-87.028-55.512-137.282-67.563-37.976-9.107-73.847-17.709-99.215-39.043-29.4-24.723-29.927-47.9-27.221-124.489,1.577-44.659-13.86-77.163-27.479-105.839-13.95-29.371-26-54.736-16.437-85.437,12.682-39.1,59.315-61.5,98.732-69.426,14.258-2.948,29.408-3.568,44.061-4.167,28.792-1.176,58.565-2.393,85.023-20.825,54.633-38.061,97.928-52.106,132.358-42.938,43.055,11.466,65.076,58.019,84.505,99.093,10.839,22.916,21.077,44.56,33.872,58.078,14.406,15.22,30.211,18.281,49.733,9.629a.561.561,0,0,0,.085-.045c23.655-15.541,39.592-35.831,55-55.454,15.31-19.49,31.141-39.645,54.294-54.354C1398.151,261.9,1421.4,209.193,1448.3,148.171c19.73-44.747,41.284-93.617,97.785-148.171h-1.564a406.355,406.355,0,0,0-38.981,43.475c-28.9,37.526-43.852,71.433-58.309,104.223-26.809,60.805-49.963,113.317-156.886,157.651a.579.579,0,0,0-.09.047c-23.344,14.818-39.247,35.065-54.627,54.645-15.346,19.536-31.215,39.739-54.687,55.172-41.573,18.38-60.322-21.261-82.033-67.157-19.536-41.3-41.68-88.12-85.26-99.724-34.778-9.261-78.393,4.837-133.327,43.108-26.178,18.238-55.778,19.447-84.4,20.617-14.7.6-29.9,1.222-44.245,4.189-39.738,7.989-86.775,30.629-99.613,70.217-9.7,31.144,2.439,56.7,16.493,86.294,13.563,28.555,28.935,60.922,27.368,105.3-2.722,77.028-2.18,100.35,27.637,125.425,25.58,21.512,61.581,30.145,99.7,39.285,50.064,12.007,101.833,24.421,136.693,67.214,25.568,24.9,34.653,44.614,44.1,66.842h1.27c-9.569-22.532-18.644-42.441-44.511-67.63" transform="translate(-143.264 -9.244)" fill="#30323c"/>
        <path id="Path_8356" data-name="Path 8356" d="M117.258,136.9C176.847,81.395,233.335,35.632,298.791,0h-6.368q-13.03,7.209-25.768,15.035c-60.026,36.919-110.284,81.172-151.54,119.6C69.977,178.044,47.249,218.861,27.2,254.874,17.959,271.462,9.53,286.591,0,299.861v5.2c10.8-14.331,19.977-30.817,29.92-48.674,19.946-35.82,42.553-76.421,87.337-119.489" transform="translate(-0.185 -9.244)" fill="#30323c"/>
        <path id="Path_8357" data-name="Path 8357" d="M105.551,929.6c-6.372-1.487-12.389-2.892-17.907-4.492C55.24,915.7,26.16,906.357,0,897.219v1.238c26.079,9.1,55.053,18.409,87.319,27.775,5.547,1.61,11.579,3.018,17.967,4.508,32.943,7.687,73.941,17.254,103.217,66.083,12.388,20.662,21.621,46.555,27.73,77.928h1.075c-6.135-31.587-15.447-57.922-27.8-78.53-29.531-49.252-70.8-58.882-103.954-66.619" transform="translate(-0.185 -207.176)" fill="#30323c"/>
        <path id="Path_8358" data-name="Path 8358" d="M855.573,789.283c-35.235-20.5-72.367-24.747-105.129-28.5-37.656-4.31-70.177-8.033-90.916-34.112C636.8,698.1,630.758,644.431,640.5,557.774c4.161-37-11.389-63.472-25.108-86.826-13.617-23.178-26.478-45.072-17.718-73.1,24.2-77.42,98.01-116.317,225.654-118.915,21.269-.433,39.837-14.575,59.5-29.548,28.532-21.733,60.867-46.362,111.441-39.583,28.753,3.855,43.239,17.344,60.011,32.962,13.011,12.114,26.464,24.641,48.378,34.574,27.556,12.493,50.346.747,79.2-14.122,28.248-14.558,63.4-32.714,114.583-32.305h.218c33.659-.005,71.556-56.176,115.415-121.193,24.443-36.236,51.447-76.262,80.27-109.72H1490.8c-28.62,33.353-55.419,73.078-79.7,109.065-43.677,64.747-81.407,120.683-114.446,120.678h-.211c-51.447-.376-86.765,17.819-115.127,32.434-28.573,14.725-51.141,26.358-78.182,14.1-21.74-9.855-35.123-22.316-48.063-34.367-16.92-15.754-31.531-29.361-60.653-33.264-51.049-6.843-83.591,17.942-112.3,39.811-20.349,15.5-37.923,28.883-58.81,29.308-58.07,1.182-103.9,9.6-140.11,25.736-44.14,19.669-73.289,51.3-86.637,94-8.915,28.521,4.075,50.632,17.826,74.04,13.627,23.2,29.072,49.487,24.955,86.1-9.781,86.984-3.658,140.926,19.272,169.761,21.041,26.456,53.784,30.2,91.7,34.544,58.367,6.68,129.51,14.828,182.328,114.872h1.343c-21.224-40.49-47.082-69.311-78.409-87.537" transform="translate(-131.142 -9.244)" fill="#30323c"/>
        <path id="Path_8359" data-name="Path 8359" d="M852.339,837.7c-29.393-19.4-70.914-25.94-111.072-32.268-18.467-2.911-37.564-5.92-55.422-10.144-47.87-11.319-76.058-28.463-88.707-53.951-11.431-23.033-9.264-51.255-6.968-81.143,1.793-23.332,3.647-47.457-.08-72.647-2.472-41.793-14.484-72.6-25.084-99.793-17.237-44.221-30.852-79.15,6.921-137.388,23.646-36.457,83.041-74.637,129.7-83.373,15.924-2.982,31.551-4.677,46.663-6.317,40.9-4.436,79.538-8.626,115.888-37.179,96.615-75.887,150.8-47.458,198.614-22.376,21.293,11.171,41.557,21.8,63.612,21.8a67.316,67.316,0,0,0,10.151-.766l.1-.022c31.867-8.487,60.051-22.48,87.313-36.016,22.772-11.307,46.32-23,72.328-31.718l.107-.042c58.072-27.465,89.5-70.983,125.906-121.4,7.813-10.819,15.772-21.834,24.2-32.953H1442.6c-7.927,10.514-15.445,20.924-22.834,31.157-36.124,50.025-67.325,93.231-124.577,120.331-26.128,8.76-49.754,20.49-72.6,31.836-27.1,13.457-55.127,27.372-86.612,35.769-24.991,3.788-47.691-8.122-71.734-20.737-24.564-12.887-49.965-26.213-82.248-27.015-36.861-.932-75.965,15.317-119.739,49.7-35.647,28-73.852,32.145-114.3,36.533-15.171,1.645-30.859,3.347-46.9,6.35-47.369,8.868-107.7,47.674-131.741,84.74-38.643,59.579-24.772,95.165-7.206,140.225,10.516,26.98,22.436,57.561,24.88,98.928l.009.085c3.69,24.909,1.849,48.873.069,72.049-2.33,30.322-4.531,58.964,7.283,82.768,13.094,26.383,41.942,44.051,90.783,55.6,17.981,4.252,37.133,7.269,55.662,10.189,39.823,6.277,81,12.768,109.832,31.79,14.413,9.511,25.036,21.542,32.057,36.521H886c-7.243-16.144-18.26-28.962-33.66-39.123" transform="translate(-120.317 -9.244)" fill="#30323c"/>
        <path id="Path_8360" data-name="Path 8360" d="M276.6,957.909c-11.6-33.548-36.13-36.591-85-42.653C148.669,909.932,87.378,902.321,0,869.34v3.334c87.121,32.758,148.306,40.354,191.211,45.676,47.587,5.9,71.473,8.866,82.482,40.85,7.2,20.928,8.955,54.258,7.986,109.4h3.114c.973-55.661-.822-89.354-8.2-110.69" transform="translate(-0.185 -201.025)" fill="#30323c"/>
        <path id="Path_8361" data-name="Path 8361" d="M185.367,642.495q6.116,0,12-.261c36.941-1.636,66.39-11.353,87.53-28.886,20.679-17.149,29.8-31.846,29.564-47.654-.217-14.869-8.552-29.955-19.1-49.054-4.057-7.346-8.657-15.672-13.155-24.689-8.686-17.422-26.669-63.508-6.1-115.071,18.942-47.477,64.758-84.726,136.172-110.713l1.441-.525c42.726-15.543,60.411-21.978,101.907-65.761,15.731-16.6,25.708-32.61,34.51-46.736,16.544-26.552,27.476-44.089,61.777-36.709,80.5,17.326,115.385.764,146.163-13.848,18.663-8.859,36.29-17.228,62.031-17.363,22.667-.884,46.288,1.963,69.131,4.714,26.051,3.135,50.658,6.1,72.207,3.522,12.235-.7,30.283-9.8,40.233-20.272C1050.016,22.3,1080.532,6.093,1108.76,0h-5.138c-27.08,6.936-56.979,24.155-102.8,72.385C991.216,82.5,973.15,91.619,961.337,92.3c-21.443,2.566-45.984-.39-71.965-3.518-22.89-2.757-46.56-5.608-69.3-4.722-25.98.136-43.722,8.559-62.506,17.476-30.609,14.532-65.3,31-145.414,13.76-35.116-7.555-46.21,10.263-63.016,37.234-8.773,14.08-18.716,30.039-34.365,46.55-41.307,43.583-58.916,49.989-101.459,65.466l-1.441.525c-38,13.83-69.182,31.129-92.667,51.417-20.521,17.729-35.391,37.9-44.192,59.96-20.747,52-2.62,98.464,6.136,116.026,4.509,9.039,9.114,17.377,13.179,24.733,21.205,38.38,32.885,59.524-10.183,95.241-20.94,17.366-50.156,26.994-86.836,28.619-32.316,1.429-69.947-3.046-115.056-13.685C55.347,621.035,27.636,612.875,0,603.756v1.231c27.543,9.079,55.161,17.2,81.986,23.531,39.751,9.376,73.719,13.976,103.38,13.976" transform="translate(-0.185 -9.244)" fill="#30323c"/>
        <path id="Path_8362" data-name="Path 8362" d="M136.205,607.1c39.872,0,65.168-12.287,79.393-37.619,15.558-27.707,15.587-53.654,15.621-83.7.051-44.983.11-95.968,53.488-169.291,28.441-39.067,58.651-53.311,93.631-69.8,45.659-21.527,97.41-45.927,163.4-131.4q1.209-1.563,2.383-3.1c14.936-19.531,26.738-34.957,72.733-27.119,88.486,15.079,116.609,1.223,141.422-11,14.89-7.336,28.954-14.259,54.6-13.558,151.57,4.186,161.887-9.082,180.615-33.165C999.747,19.294,1006.906,10.092,1020.8,0h-1.976c-13.177,9.8-20.145,18.762-26.259,26.625C974.072,50.4,963.885,63.5,812.906,59.339c-25.923-.72-40.122,6.276-55.147,13.676-24.652,12.146-52.6,25.911-140.708,10.9-46.7-7.959-58.684,7.717-73.858,27.56q-1.176,1.537-2.379,3.1C475,199.824,423.38,224.16,377.84,245.632c-35.125,16.561-65.461,30.862-94.078,70.172-53.6,73.629-53.66,124.816-53.712,169.977-.034,29.882-.063,55.689-15.471,83.129C194.371,604.9,151.3,614.136,74.9,598.861,52.742,594.43,27.867,587.938,0,579.512v1.221c27.767,8.386,52.565,14.854,74.673,19.274,23.55,4.708,43.954,7.1,61.532,7.095" transform="translate(-0.185 -9.244)" fill="#30323c"/>
        <path id="Path_8363" data-name="Path 8363" d="M176.1,434.851c23.344-76.905,55.314-182.23,212.719-256.979,38.547-15.306,61.363-42.959,85.519-72.234,5.129-6.217,10.433-12.645,15.855-18.886,49.294-56.738,101.391-53.231,161.719-49.172,13.7.922,27.863,1.875,42.607,2.192,26.713.569,53.45-3.037,84.4-7.217,29.8-4.026,63.577-8.586,104.247-10.217C902.488,21.563,922.742,12.116,943,0h-2.288C921.157,11.548,901.66,20.426,883.12,21.169c-40.726,1.633-74.531,6.2-104.357,10.228-30.9,4.173-57.589,7.775-84.218,7.206-14.717-.316-28.869-1.268-42.553-2.189-60.637-4.081-113-7.6-162.681,49.573-5.43,6.25-10.739,12.684-15.873,18.907-24.058,29.158-46.781,56.7-85.083,71.908C318.31,210.063,266.971,251.771,231.4,304.309c-30.626,45.237-44.328,90.377-56.417,130.2-12.27,40.424-22.866,75.335-48.166,94.529C100.922,548.687,61.533,551.2,0,536.912v1.2c26.6,6.145,48.605,8.994,66.979,8.993,75.042,0,89.482-47.549,109.123-112.256" transform="translate(-0.185 -9.244)" fill="#30323c"/>
        <path id="Path_8364" data-name="Path 8364" d="M87.959,511.647C128.6,495.26,143.57,454.559,158.045,415.2c5.548-15.086,11.285-30.683,18.415-44.842,41.616-100,67.653-135.052,209.707-223.925,17.843-11.163,30.214-26.482,43.311-42.7,13.98-17.312,28.437-35.214,51-50.042C532.418,19.566,584.594,20.036,645,20.58c11.214.1,22.81.2,34.747.1C751.553,20.013,828.727,16.7,883.261,0h-4.076C825.062,15.685,749.843,18.86,679.738,19.506c-11.928.11-23.517,0-34.725-.1-60.608-.549-112.941-1.017-165.173,33.3C457.12,67.642,442.6,85.616,428.568,103c-13.034,16.14-25.344,31.384-43.022,42.443-74.292,46.478-114.212,76.6-142.378,107.44C213.7,285.152,196.605,318.906,175.4,369.87c-7.143,14.18-12.891,29.81-18.45,44.925-15.05,40.922-29.265,79.574-69.426,95.767C64.351,519.907,34.632,520.528,0,515.643v1.169a281.134,281.134,0,0,0,38.868,3.008c18.5,0,34.991-2.487,49.092-8.173" transform="translate(-0.185 -9.244)" fill="#30323c"/>
        <path id="Path_8365" data-name="Path 8365" d="M82.576,479.719c32.2-18.835,45.968-52.855,63.4-95.926,28.542-70.512,67.634-167.082,216.934-257.507,32.552-19.716,45.525-35.617,56.97-49.646,14.311-17.54,26.67-32.689,70.884-51.462C539.857,4.337,591.014,6.316,640.485,8.227c12.589.487,25.605.99,38.237,1.086,49.531.375,92.091-2.7,128.426-9.313h-6.781c-34.794,5.81-75.134,8.5-121.635,8.144-12.614-.1-25.622-.6-38.2-1.085-49.6-1.917-100.89-3.9-150.218,17.042C445.83,42.987,433.386,58.24,418.978,75.9c-11.385,13.955-24.291,29.773-56.671,49.384C212.675,215.912,173.5,312.689,144.9,383.353c-17.352,42.865-31.057,76.723-62.91,95.357C62.084,490.352,35.614,495.571,0,494.428v1.161c3.188.1,6.314.16,9.359.16,31.174,0,54.925-5.329,73.217-16.03" transform="translate(-0.185 -9.244)" fill="#30323c"/>
        <path id="Path_8366" data-name="Path 8366" d="M58,346.972c14.89-23.882,27.237-53.18,39.179-81.513l1.505-3.57C153,133.1,318.682,34.752,400.208,0h-2.97C345.361,22.407,285.972,57.841,237.472,95.4c-31.6,24.47-59.084,50.021-81.695,75.943-25.916,29.712-45.486,60.023-58.167,90.088l-1.5,3.57C72.352,321.365,47.791,379.644,1.58,398.32c-.525.212-1.053.412-1.58.62v1.247c.672-.263,1.352-.514,2.019-.783C22.978,390.933,41.291,373.782,58,346.972" transform="translate(-0.185 -9.244)" fill="#30323c"/>
        <path id="Path_8367" data-name="Path 8367" d="M94.359,428.246c9.583-14.12,16.914-32,25.4-52.71,23.9-58.306,56.635-138.157,173.794-231.4C318.1,124.6,337.439,107.587,354.5,92.575c54.042-47.559,83.812-73.756,178.474-91.35C535.318.789,537.6.383,539.831,0h-6.657l-.419.076C437.779,17.729,407.923,44,353.724,91.7c-17.048,15-36.37,32.007-60.9,51.526-51.952,41.345-91.948,83.688-122.271,129.444-25.927,39.119-40.316,74.22-51.878,102.425-8.463,20.647-15.773,38.478-25.3,52.509C73.914,457.873,40.31,470.808,0,473.488v1.246c45.177-2.962,76.241-18.319,94.359-46.488" transform="translate(-0.185 -9.244)" fill="#30323c"/>
        <path id="Path_8368" data-name="Path 8368" d="M95.808,318.306c13.875-34.353,29.6-73.29,59.4-109.869C228.431,118.544,330.321,42.412,432.864,0h-3.025C327.995,42.688,227.027,118.415,154.3,207.7c-29.908,36.714-45.669,75.739-59.576,110.169-15.109,37.409-28.158,69.718-54.955,90.725-11.1,8.7-24.246,15.071-39.768,19.169v1.21c15.809-4.135,29.188-10.6,40.488-19.46,27.045-21.2,40.147-53.642,55.32-91.206" transform="translate(-0.185 -9.244)" fill="#30323c"/>
        <path id="Path_8369" data-name="Path 8369" d="M55.856,431.434c27.355-20.685,40.46-53.548,55.633-91.6,12.645-31.707,26.975-67.646,52.413-104.645C199.409,183.543,331.869,45.681,479.633,0h-9.961C403.716,22.216,344.134,61.045,301.763,93.59c-64.834,49.8-117.247,106.113-140.43,139.834C135.7,270.711,121.3,306.82,108.594,338.68c-15,37.618-27.957,70.107-54.618,90.268C39.722,439.727,22.131,446.711,0,450.1v3.061c.644-.1,1.3-.185,1.933-.288,21.867-3.521,39.506-10.534,53.924-21.437" transform="translate(-0.185 -9.244)" fill="#3e63ff"/>
        <path id="Path_8370" data-name="Path 8370" d="M73.495,266.722c10.258-25.043,19.946-48.7,35.283-68.206C188.87,90.533,283.813,36.967,368.131,0h-2.906c-83.85,36.994-177.9,90.658-257.376,197.806C92.42,217.432,82.7,241.159,72.413,266.279,56.382,305.417,39.864,345.743,0,370.909v1.378c40.619-25.316,57.307-66.041,73.495-105.565" transform="translate(-0.185 -9.244)" fill="#30323c"/>
        <path id="Path_8371" data-name="Path 8371" d="M32.657,299.74C110.267,127.551,226.127,56.773,338.729,0h-2.592C224,56.692,108.882,127.777,31.591,299.26A116.1,116.1,0,0,1,0,341.179v1.641a118.068,118.068,0,0,0,32.657-43.08" transform="translate(-0.185 -9.244)" fill="#30323c"/>
        <path id="Path_8372" data-name="Path 8372" d="M156.868,0h-5.051c-19.993,15.757-39.476,32.124-59.249,48.735C63.387,73.251,33.339,98.487,0,123.153v3.875c34.141-25.143,64.795-50.89,94.573-75.906C115.35,33.668,135.8,16.484,156.868,0" transform="translate(-0.185 -9.244)" fill="#30323c"/>
        <path id="Path_8373" data-name="Path 8373" d="M114.951,93.524c47.477-38.449,90.1-69.062,129.2-93.524h-2.207c-38.7,24.323-80.854,54.653-127.729,92.615-36.5,29.563-65.47,65.457-93.481,100.168C13.784,201.4,6.9,209.923,0,218.237v1.825c7.209-8.661,14.388-17.551,21.645-26.544,27.973-34.665,56.9-70.509,93.307-99.994" transform="translate(-0.185 -9.244)" fill="#30323c"/>
        <path id="Path_8374" data-name="Path 8374" d="M99.413,0H97.751C84.094,13.505,69.8,28.4,54.64,44.9A307.736,307.736,0,0,1,0,85.706v1.361A309.261,309.261,0,0,0,55.47,45.721C70.937,28.885,85.509,13.717,99.413,0" transform="translate(-0.185 -9.244)" fill="#30323c"/>
        <path id="Path_8375" data-name="Path 8375" d="M115.371,69.2A1085.085,1085.085,0,0,1,211.461,0h-2.153a1083.576,1083.576,0,0,0-94.674,68.3c-30.666,24.893-61.38,55.588-91.083,85.271C15.726,161.388,7.88,169.227,0,177v1.642c8.159-8.043,16.279-16.157,24.378-24.25C54.06,124.732,84.753,94.06,115.371,69.2" transform="translate(-0.185 -9.244)" fill="#30323c"/>
        <path id="Path_8376" data-name="Path 8376" d="M41.482,0H39.939A166.556,166.556,0,0,1,0,32.3v1.357C15.17,24.721,29.336,13.833,41.482,0" transform="translate(-0.185 -9.244)" fill="#30323c"/>
        <path id="Path_8377" data-name="Path 8377" d="M267.661,1.861C268.613,1.247,269.6.626,270.6,0H268.41c-.462.293-.931.588-1.382.878C200.985,43.461,154.3,74.558,108.948,117.131,72.025,151.787,38.016,192.291,0,247.425v2.056C88.494,120.733,150.7,77.278,267.661,1.861" transform="translate(-0.185 -9.244)" fill="#30323c"/>
        <path id="Path_8378" data-name="Path 8378" d="M271.112,663.955c27.305-4.776,51.488-14.4,69.934-27.834,16.562-12.061,28.244-26.8,33.782-42.623,6.584-18.815,3.606-37.241-8.172-50.553-55.961-63.246-78.2-110.108-70-147.475,8.209-37.392,45.331-67.5,128.143-103.911,68.753-32,111.344-75.813,139.527-104.805,22.2-22.84,36.875-37.928,50.3-34.542,27.359,6.9,48.139,9.77,64.935,9.77,32.735,0,50.322-10.927,71.847-24.306a337.02,337.02,0,0,1,31.424-17.9c50.083-22.654,94.1-10.857,136.656.55,15.466,4.145,30.072,8.061,44.616,10.22a88.07,88.07,0,0,0,17.446,1.839c32.434,0,51.678-20.817,71.876-42.669,13.277-14.364,27.007-29.218,44.985-37.972,30.7-15.783,51.319-14.117,69.51-12.65,25.358,2.047,47.51,3.826,88.174-39.093h-1.61c-39.8,41.693-61.57,39.941-86.47,37.928-18.346-1.48-39.14-3.158-70.127,12.77-18.166,8.845-31.971,23.78-45.32,38.223-23.348,25.26-45.406,49.119-88.262,40.473-14.506-2.156-29.082-6.063-44.514-10.2-42.761-11.461-86.977-23.313-137.456-.479a338.079,338.079,0,0,0-31.543,17.965c-32.326,20.094-55.682,34.61-135.88,14.4-14.084-3.544-28.94,11.731-51.424,34.861-29.8,30.661-70.624,72.65-139.171,104.555-83.188,36.581-120.5,66.92-128.8,104.725-4.181,19.043-.708,40.01,10.618,64.1,11.464,24.386,30.975,51.995,59.649,84.4,11.489,12.986,14.385,30.988,7.944,49.392-5.46,15.6-17,30.145-33.367,42.065-18.3,13.328-42.316,22.881-69.446,27.626C166.725,681.027,81.882,660.971,0,629.278v1.26C60.409,653.892,122.445,670.9,192.7,670.9a453.662,453.662,0,0,0,78.412-6.941" transform="translate(-0.185 -9.244)" fill="#30323c"/>
        <path id="Path_8379" data-name="Path 8379" d="M72.621,0H71.087C52.145,22.34,32.858,43.549,0,62.348v1.344C33.751,44.508,53.29,22.834,72.621,0" transform="translate(-0.185 -9.244)" fill="#30323c"/>
        <path id="Path_8380" data-name="Path 8380" d="M101.443,579.38c21.009,0,37.74-4.015,51.15-12.278,31.822-19.606,40.217-61.05,49.94-109.038,13.03-64.317,29.247-144.362,108.95-203.888C351.5,227.42,377.11,215.319,397.7,205.591c39.039-18.445,60.544-28.606,128.132-114.584,28.464-36.208,48.537-34.5,88.539-31.084,36.293,3.1,86,7.342,170.179-13.332,28.58-7.019,58.171-7.071,84.288-7.117,26.5-.045,49.382-.085,66.453-6.863C955.716,24.5,970.49,12.663,985.9,0h-4.919c-14.155,11.567-28.13,22.287-46.838,29.714-16.52,6.558-39.129,6.6-65.309,6.642-26.286.046-56.079.1-85.026,7.206C700.138,64.112,650.726,59.9,614.634,56.817c-39.543-3.379-61.449-5.248-90.653,31.5l-.6.764c-67.134,85.4-88.4,95.45-127.016,113.694-20.672,9.767-46.4,21.921-86.679,48.857-80.723,60.285-97.07,140.977-110.206,205.816-9.579,47.276-17.85,88.105-48.52,107-26,16.02-66.353,15.771-126.989-.786C15.757,561.42,7.788,559.346,0,557.372v3.217c7.527,1.913,15.222,3.917,23.148,6.081,31.323,8.552,56.934,12.71,78.295,12.71" transform="translate(-0.185 -9.244)" fill="#30323c"/>
        <path id="Path_8381" data-name="Path 8381" d="M1.36,0Q.678.325,0,.625V1.958Q2.019,1.092,4.056,0Z" transform="translate(-0.185 -9.244)" fill="#30323c"/>
        <path id="Path_8382" data-name="Path 8382" d="M966.281,490.611c-15.471.813-28.884,9.025-34.17,20.921-5.147,11.579-2.1,25.214,8.58,38.4,14.172,32.135,37.476,44.746,54.565,45.833q1.286.082,2.541.081c11.218,0,20.514-4.863,25.754-13.572,8.979-14.922,4.725-38.79-11.674-65.488-10.021-17.365-27.068-27.145-45.6-26.177m56.268,91.062c-5.4,8.972-15.318,13.687-27.22,12.926-16.76-1.065-39.642-13.5-53.6-45.209a.633.633,0,0,0-.082-.133c-10.427-12.846-13.434-26.075-8.467-37.251,5.111-11.5,18.127-19.437,33.163-20.228.823-.043,1.641-.065,2.457-.065,17.126,0,32.719,9.458,42.069,25.665,16.173,26.329,20.428,49.758,11.681,64.294" transform="translate(-205.275 -117.461)" fill="#30323c"/>
        <path id="Path_8383" data-name="Path 8383" d="M109.54,17.417Q119.383,8.6,129.066,0H127.3q-9.221,8.167-18.542,16.547C89.8,33.532,70.191,51.095,49.545,67.693A535.848,535.848,0,0,1,0,102.8v1.386A538.637,538.637,0,0,0,50.278,68.6c20.67-16.618,40.288-34.192,59.262-51.188" transform="translate(-0.185 -9.244)" fill="#30323c"/>
        <path id="Path_8384" data-name="Path 8384" d="M968.473,697.279c-6.3-1.085-17.666,1.246-23.2,29.059-1.3,6.542-.45,11.778,2.533,15.561,5.61,7.114,17.515,7.578,24.629,7.855,1.659.065,3.091.122,4.121.245a32.642,32.642,0,0,0,3.922.25c11.431,0,14.306-7.1,14.971-11.643,2.073-14.12-12.033-38.744-26.972-41.327m25.817,41.156c-1.183,8.056-7.264,11.65-17.6,10.4-1.078-.131-2.532-.188-4.216-.253-6.912-.269-18.48-.719-23.757-7.411-2.762-3.5-3.537-8.417-2.3-14.608,3.96-19.895,11.724-29.892,21.859-28.135,14.418,2.492,28.022,26.33,26.015,40" transform="translate(-208.586 -163.022)" fill="#30323c"/>
        <path id="Path_8385" data-name="Path 8385" d="M186.847,0H184.8C140.534,30.668,94.877,65.676,52.113,101.873,35.78,115.092,18.363,130.889,0,147.7v1.585c18.64-17.065,36.309-33.113,52.859-46.508C96.049,66.216,142.184,30.876,186.847,0" transform="translate(-0.185 -9.244)" fill="#30323c"/>
        <path id="Path_8386" data-name="Path 8386" d="M245.668,703.834q5.511.1,10.9.1c33.208,0,62.973-2.853,86.606-8.334,29.223-6.776,49.365-17.387,59.872-31.54,25.4-34.225,34.459-64.684,27.682-93.121-6-25.169-23.347-45.835-40.124-65.821-21.326-25.4-41.469-49.4-38.019-80.729,1.7-15.454,8.982-31.4,22.258-48.757,14.772-19.311,36.533-39.853,66.528-62.8,127.307-97.395,210.443-108.968,248.665-107.213,23.563,1.108,40.766-12.063,59.006-25.984,10.82-8.258,22.007-16.8,35.4-23.274,59.194-32.241,102.972-14.978,145.307,1.715,25.56,10.08,49.721,19.609,76.54,18.415,19.525-2.249,33.075-16.116,48.764-32.172,19.738-20.2,42.11-43.093,83.454-51.569,49.074-10.061,85.2-24.518,113.7-45.5C1271.037,33.4,1285.5,17.641,1299.795,0h-1.5c-34.122,42.01-69.066,72.958-160.021,91.606-41.7,8.548-64.2,31.579-84.055,51.9-15.533,15.9-28.948,29.626-48.02,31.824-26.545,1.16-50.578-8.306-76.018-18.338-42.584-16.793-86.62-34.159-146.269-1.668-13.476,6.517-24.711,15.092-35.577,23.385-18.065,13.789-35.109,26.818-58.243,25.746-38.38-1.782-121.829,9.832-249.43,107.452-30.077,23.009-51.909,43.623-66.745,63.016-13.409,17.529-20.766,33.668-22.493,49.34-3.505,31.828,16.794,56.008,38.285,81.609,33.739,40.188,68.625,81.745,12.4,157.492-10.336,13.924-30.252,24.387-59.2,31.1-26.1,6.052-59.72,8.887-97.223,8.2-72.031-1.318-154.226-15.361-214.51-36.65C22.316,662.885,11.788,658.762,0,653.9v1.264c11.627,4.794,22.019,8.859,30.789,11.957,60.394,21.328,142.732,35.4,214.879,36.716" transform="translate(-0.185 -9.244)" fill="#30323c"/>
        <path id="Path_8387" data-name="Path 8387" d="M554.361,1028.764c-50.5,6.121-91.354,31.224-121.646,74.688h1.437c30.05-42.764,70.459-67.481,120.35-73.528a201.4,201.4,0,0,1,24.237-1.434c75.776,0,152.194,40.187,190.557,74.961h1.735c-42.266-38.84-132.441-84.9-216.67-74.688" transform="translate(-95.644 -235.877)" fill="#30323c"/>
        <path id="Path_8388" data-name="Path 8388" d="M574.659,1083.853c-23.974,2.3-46.3,12.982-64.579,30.9-.356.348-.7.714-1.051,1.068h1.439c17.793-17.542,39.9-28.462,64.3-30.8q4.885-.468,9.831-.467c27.331,0,56,10.679,83.938,31.269h1.95c-31.932-23.895-64.9-34.933-95.83-31.965" transform="translate(-112.479 -248.244)" fill="#30323c"/>
      </g>
    </g>
  </g>
</svg>
